<svg width="167" height="167" viewBox="0 0 167 167" fill="none" xmlns="http://www.w3.org/2000/svg">
<path d="M92.7771 28.028C92.7771 33.1864 88.5882 37.3707 83.4994 37.3707C78.4106 37.3707 74.2217 33.1864 74.2217 28.028V9.34267C74.2217 4.17962 78.4106 0 83.4994 0C88.5882 0 92.7771 4.17962 92.7771 9.34267V28.028Z" fill="#FFCC4D"/>
<path d="M42.5846 166.997C41.5455 166.997 40.4878 166.756 39.4951 166.26C36.0809 164.525 34.6939 160.322 36.401 156.857L77.8724 72.768C79.0414 70.3929 81.4351 68.8945 84.056 68.8945C86.677 68.8945 89.0706 70.3929 90.2396 72.768L131.716 156.857C133.423 160.322 132.04 164.525 128.626 166.26C125.212 167.985 121.06 166.584 119.353 163.124L84.0606 91.5693L48.7728 163.124C47.5574 165.578 45.1174 166.997 42.5846 166.997Z" fill="#FFAC33"/>
<path d="M84.0595 94.5962C82.8395 94.5962 81.6658 94.1044 80.803 93.2277L16.2903 27.8244C14.4905 25.9967 14.4905 23.0417 16.2903 21.2186C18.0902 19.3955 21.0081 19.3955 22.8033 21.2186L84.0595 83.3144L145.306 21.214C147.111 19.3909 150.024 19.3909 151.824 21.214C153.624 23.0417 153.624 25.9967 151.824 27.8197L87.3206 93.2277C86.4531 94.0998 85.2842 94.5962 84.0595 94.5962Z" fill="#58595B"/>
<path d="M157.789 89.9267C157.789 131.203 124.783 164.663 84.0585 164.663C43.3432 164.663 10.333 131.203 10.333 89.9267C10.333 48.6408 43.3432 15.1807 84.0585 15.1807C124.778 15.176 157.789 48.6408 157.789 89.9267Z" fill="#DD2E44"/>
<path d="M139.357 89.9239C139.357 120.884 114.609 145.98 84.0616 145.98C53.524 145.98 28.771 120.884 28.771 89.9239C28.771 58.9595 53.524 33.8633 84.0616 33.8633C114.609 33.8586 139.357 58.9595 139.357 89.9239Z" fill="#E6E7E8"/>
<path d="M139.351 5.83008C131.716 5.83008 124.809 8.96595 119.803 14.0409L158.904 53.6753C163.905 48.605 166.999 41.6004 166.999 33.8581C166.999 18.3828 154.618 5.83008 139.351 5.83008ZM27.6476 5.83008C35.2786 5.83008 42.1905 8.96595 47.1958 14.0409L8.09482 53.6753C3.09412 48.605 0 41.6004 0 33.8581C0 18.3828 12.3765 5.83008 27.6476 5.83008Z" fill="#FFCC4D"/>
<path d="M106.694 92.7775H83.4997C80.9391 92.7775 78.8608 90.7039 78.8608 88.1386V46.3889C78.8608 43.8282 80.9391 41.75 83.4997 41.75C86.0604 41.75 88.1386 43.8282 88.1386 46.3889V83.4998H106.694C109.259 83.4998 111.333 85.578 111.333 88.1386C111.333 90.7039 109.259 92.7775 106.694 92.7775Z" fill="#414042"/>
</svg>
