<svg width="314" height="267" viewBox="0 0 314 267" fill="none" xmlns="http://www.w3.org/2000/svg">
<path d="M67.8303 83.1537C67.3629 85.5946 68.9627 87.9523 71.4037 88.4197C73.8446 88.8871 76.2023 87.2873 76.6697 84.8463L67.8303 83.1537ZM241.606 82.4563C243.791 83.6405 246.522 82.8292 247.706 80.6442L267.005 45.0377C268.189 42.8527 267.377 40.1214 265.192 38.9371C263.007 37.7529 260.276 38.5642 259.092 40.7492L241.938 72.3995L210.288 55.2455C208.103 54.0613 205.371 54.8725 204.187 57.0575C203.003 59.2425 203.814 61.9738 205.999 63.1581L241.606 82.4563ZM76.6697 84.8463C81.0407 62.0202 90.3251 43.0638 103.946 29.8556C117.502 16.711 135.611 9 158.25 9V0C133.393 0 113.001 8.53897 97.6812 23.3944C82.4267 38.1862 72.4593 58.9798 67.8303 83.1537L76.6697 84.8463ZM158.25 9C181.211 9 197.654 14.6552 210.178 25.9097C222.84 37.287 232.033 54.8575 239.436 79.7813L248.064 77.2187C240.467 51.6425 230.658 32.213 216.194 19.2153C201.593 6.09482 182.786 0 158.25 0V9Z" fill="#404B69"/>
<path d="M248.42 183.846C248.887 181.405 247.287 179.048 244.846 178.58C242.405 178.113 240.048 179.713 239.58 182.154L248.42 183.846ZM74.1442 179.044C71.9592 177.859 69.2279 178.671 68.0437 180.856L48.7455 216.462C47.5612 218.647 48.3725 221.379 50.5575 222.563C52.7425 223.747 55.4738 222.936 56.6581 220.751L73.812 189.101L105.462 206.255C107.647 207.439 110.379 206.627 111.563 204.442C112.747 202.257 111.936 199.526 109.751 198.342L74.1442 179.044ZM239.58 182.154C235.209 204.98 225.925 223.936 212.304 237.144C198.748 250.289 180.639 258 158 258L158 267C182.857 267 203.249 258.461 218.569 243.606C233.823 228.814 243.791 208.02 248.42 183.846L239.58 182.154ZM158 258C135.284 258 118.723 251.116 105.981 238.491C93.0763 225.704 83.7254 206.671 76.3137 181.719L67.6863 184.281C75.2746 209.829 85.1755 230.546 99.6465 244.884C114.281 259.384 133.22 267 158 267L158 258Z" fill="#404B69"/>
<path d="M107.917 129.667C106.212 129.667 104.833 131.045 104.833 132.75V154.333H6.16667V108.083C6.16667 106.381 4.78842 105 3.08333 105C1.37825 105 0 106.381 0 108.083V175.917C0 177.622 1.37825 179 3.08333 179C4.78842 179 6.16667 177.622 6.16667 175.917V169.75H104.833V175.917C104.833 177.622 106.212 179 107.917 179C109.622 179 111 177.622 111 175.917V132.75C111 131.045 109.622 129.667 107.917 129.667Z" fill="#C1694F"/>
<path d="M52.4168 120.417H46.2502C42.8585 120.417 40.0835 123.192 40.0835 126.584V138.917H52.4168V120.417Z" fill="#AA8DD8"/>
<path d="M95.5833 124.185L52.4167 120.417C42.5253 120.417 40.0833 138.917 40.0833 138.917H37V157.417H104.833V132.75C104.833 126.815 101.519 124.185 95.5833 124.185Z" fill="#55ACEE"/>
<path d="M40.0832 138.917H12.3332C8.92917 138.917 6.1665 141.68 6.1665 145.084V157.417H36.9998L40.0832 138.917Z" fill="#BDDDF4"/>
<path d="M6.51858 130.527C5.646 134.267 12.3677 138.29 21.5375 139.521C30.7073 140.748 38.8473 138.71 39.723 134.973C40.5956 131.233 33.8739 127.209 24.7041 125.979C15.5373 124.748 7.39425 126.786 6.51858 130.527Z" fill="#5C913B"/>
<path d="M40.6662 135.833C40.2531 137.668 40.0835 138.916 40.0835 138.916H104.833V135.833H40.6662Z" fill="#226699"/>
<path d="M104.833 132.75H41.4769C41.1378 133.875 40.8695 134.924 40.666 135.833H104.833V132.75Z" fill="#3B88C3"/>
<path d="M41.3459 132.803C43.6928 128.265 40.3328 121.865 33.8409 118.507C27.3491 115.149 20.1839 116.106 17.8369 120.643C15.49 125.181 18.8501 131.581 25.3419 134.939C31.8337 138.297 38.9989 137.34 41.3459 132.803Z" fill="#FFDC5D"/>
<path d="M24.2814 136.992C24.2814 136.992 12.5278 130.912 17.8372 120.641C22.0861 112.424 33.8428 118.504 33.8428 118.504C33.8428 118.504 27.966 115.464 24.7778 121.628C22.6534 125.738 31.4687 130.295 24.2814 136.992Z" fill="#FFAC33"/>
<path d="M314 131C314 157.509 292.509 179 266 179C239.491 179 218 157.509 218 131C218 104.491 239.491 83 266 83C292.509 83 314 104.491 314 131Z" fill="#FFCC4D"/>
<path d="M280.626 160.011C280.597 159.894 277.573 148.334 266 148.334C254.426 148.334 251.402 159.894 251.373 160.011C251.232 160.579 251.49 161.16 251.992 161.462C252.493 161.76 253.146 161.691 253.581 161.302C253.605 161.28 256.282 159 266 159C275.573 159 278.312 161.214 278.416 161.302C278.669 161.542 279 161.667 279.333 161.667C279.557 161.667 279.784 161.611 279.989 161.496C280.512 161.198 280.773 160.592 280.626 160.011ZM259.874 129.928C259.84 129.952 256.509 132.334 250 132.334C243.488 132.334 240.16 129.952 240.133 129.934C239.616 129.544 238.89 129.582 238.416 130.032C237.944 130.478 237.861 131.2 238.224 131.742C238.386 131.982 242.264 137.667 250 137.667C257.733 137.667 261.613 131.982 261.776 131.739C262.133 131.2 262.053 130.486 261.586 130.038C261.117 129.587 260.389 129.547 259.874 129.928ZM293.586 130.04C293.12 129.59 292.394 129.544 291.872 129.928C291.84 129.952 288.506 132.334 282 132.334C275.49 132.334 272.16 129.952 272.133 129.934C271.618 129.544 270.89 129.582 270.416 130.032C269.944 130.478 269.864 131.2 270.224 131.742C270.386 131.982 274.264 137.667 282 137.667C289.733 137.667 293.613 131.982 293.776 131.739C294.136 131.203 294.053 130.488 293.586 130.04ZM300.669 125.667C299.856 125.667 299.058 125.299 298.533 124.6C291.49 115.211 282.37 115.003 281.984 115C280.517 114.984 279.333 113.784 279.341 112.32C279.349 110.851 280.533 109.667 282 109.667C282.49 109.667 294.098 109.8 302.8 121.4C303.685 122.579 303.445 124.251 302.266 125.134C301.786 125.494 301.226 125.667 300.669 125.667ZM231.33 125.667C230.776 125.667 230.213 125.494 229.733 125.134C228.554 124.251 228.317 122.579 229.2 121.4C237.898 109.8 249.509 109.667 250 109.667C251.472 109.667 252.666 110.862 252.666 112.334C252.666 113.803 251.48 114.995 250.01 115C249.594 115.006 240.493 115.23 233.464 124.6C232.944 125.299 232.141 125.667 231.33 125.667Z" fill="#664500"/>
<path d="M279.333 144.333C295.896 144.333 314 155 314 168.333C314 179 306 179 306 179C284.667 179 303.333 155 279.333 144.333Z" fill="#5DADEC"/>
<path d="M56 178C76.4345 178 93 161.435 93 141C93 120.565 76.4345 104 56 104C35.5655 104 19 120.565 19 141C19 161.435 35.5655 178 56 178Z" fill="#99AAB5"/>
<path d="M55.9999 169.778C71.8935 169.778 84.7777 156.894 84.7777 141C84.7777 125.107 71.8935 112.223 55.9999 112.223C40.1064 112.223 27.2222 125.107 27.2222 141C27.2222 156.894 40.1064 169.778 55.9999 169.778Z" fill="#E1E8ED"/>
<path d="M53.9443 141C53.9443 142.136 54.8652 143.055 55.9999 143.055C57.1366 143.055 58.0554 142.136 58.0554 141V118.389C58.0554 117.254 57.1366 116.333 55.9999 116.333C54.8652 116.333 53.9443 117.254 53.9443 118.389V141Z" fill="#66757F"/>
<path d="M38.1969 130.722C37.6295 131.707 37.9667 132.963 38.9492 133.53L54.9723 142.78C55.9548 143.347 57.2108 143.01 57.7781 142.028C58.3454 141.045 58.0083 139.787 57.0278 139.22L41.0048 129.97C40.0222 129.402 38.7642 129.74 38.1969 130.722Z" fill="#66757F"/>
</svg>
