<svg width="143" height="143" viewBox="0 0 143 143" fill="none" xmlns="http://www.w3.org/2000/svg">
<path d="M125.89 4.93384H17.1106C10.178 4.93384 4.55908 10.5527 4.55908 17.4853V126.265C4.55908 133.197 10.178 138.816 17.1106 138.816H125.89C132.823 138.816 138.441 133.197 138.441 126.265V17.4853C138.441 10.5527 132.823 4.93384 125.89 4.93384Z" fill="#CCD6DD"/>
<path d="M125.89 0.75H17.1103C7.86823 0.75 0.375 8.24323 0.375 17.4853V126.265C0.375 135.507 7.86823 143 17.1103 143H125.89C135.132 143 142.625 135.507 142.625 126.265V17.4853C142.625 8.24323 135.132 0.75 125.89 0.75ZM125.89 9.11765C130.504 9.11765 134.257 12.8705 134.257 17.4853V34.2206H109.154V9.11765H125.89ZM109.154 76.0588H134.257V101.162H109.154V76.0588ZM109.154 67.6912V42.5882H134.257V67.6912H109.154ZM100.787 9.11765V34.2206H75.6838V9.11765H100.787ZM75.6838 42.5882H100.787V67.6912H75.6838V42.5882ZM75.6838 76.0588H100.787V101.162H75.6838V76.0588ZM67.3162 9.11765V34.2206H42.2132V9.11765H67.3162ZM42.2132 42.5882H67.3162V67.6912H42.2132V42.5882ZM42.2132 76.0588H67.3162V101.162H42.2132V76.0588ZM8.74265 17.4853C8.74265 12.8705 12.4955 9.11765 17.1103 9.11765H33.8456V34.2206H8.74265V17.4853ZM8.74265 42.5882H33.8456V67.6912H8.74265V42.5882ZM8.74265 76.0588H33.8456V101.162H8.74265V76.0588ZM17.1103 134.632C12.4955 134.632 8.74265 130.879 8.74265 126.265V109.529H33.8456V134.632H17.1103ZM42.2132 134.632V109.529H67.3162V134.632H42.2132ZM75.6838 134.632V109.529H100.787V134.632H75.6838ZM125.89 134.632H109.154V109.529H134.257V126.265C134.257 130.879 130.504 134.632 125.89 134.632Z" fill="#E1E8ED"/>
<path d="M50.581 134.632H25.478V63.5073C25.478 58.8884 29.2267 55.1396 33.8457 55.1396H42.2133C46.8323 55.1396 50.581 58.8884 50.581 63.5073V134.632Z" fill="#5C913B"/>
<path d="M117.522 134.632H92.4194V34.2204C92.4194 29.6015 96.1681 25.8528 100.787 25.8528H109.155C113.774 25.8528 117.522 29.6015 117.522 34.2204V134.632Z" fill="#3B94D9"/>
<path d="M84.0517 134.632H58.9487V92.7939C58.9487 88.175 62.6974 84.4263 67.3164 84.4263H75.684C80.303 84.4263 84.0517 88.175 84.0517 92.7939V134.632Z" fill="#DD2E44"/>
</svg>
