<svg width="32" height="36" viewBox="0 0 32 36" fill="none" xmlns="http://www.w3.org/2000/svg">
<path d="M26.815 4H28.811V5H26.815V4Z" fill="#66757F"/>
<path d="M0 12V32C0 34.209 1.791 36 4 36H28C30.209 36 32 34.209 32 32V12H0Z" fill="#CCD6DD"/>
<path d="M28 4H4C1.791 4 0 5.791 0 8V13H32V8C32 5.791 30.209 4 28 4Z" fill="#DD2E44"/>
<path d="M6.836 8.731C6.134 8.731 5.565 8.065 5.565 7.242C5.565 6.42 6.134 5.753 6.836 5.753C7.537 5.753 8.106 6.42 8.106 7.242C8.106 8.064 7.537 8.731 6.836 8.731ZM12.836 8.731C12.134 8.731 11.565 8.065 11.565 7.242C11.565 6.42 12.134 5.753 12.836 5.753C13.537 5.753 14.106 6.42 14.106 7.242C14.106 8.064 13.537 8.731 12.836 8.731V8.731ZM18.836 8.731C18.134 8.731 17.565 8.065 17.565 7.242C17.565 6.42 18.134 5.753 18.836 5.753C19.537 5.753 20.107 6.42 20.107 7.242C20.106 8.064 19.537 8.731 18.836 8.731ZM24.836 8.731C24.134 8.731 23.565 8.065 23.565 7.242C23.565 6.42 24.134 5.753 24.836 5.753C25.537 5.753 26.107 6.42 26.107 7.242C26.106 8.064 25.537 8.731 24.836 8.731Z" fill="#292F33"/>
<path d="M25.315 0.179C24.038 0.179 22.932 0.981 22.321 2.149C21.715 1.006 20.604 0.179 19.315 0.179C18.038 0.179 16.932 0.981 16.321 2.149C15.715 1.006 14.604 0.179 13.315 0.179C12.038 0.179 10.932 0.981 10.321 2.149C9.715 1.006 8.604 0.179 7.315 0.179C5.381 0.179 3.815 1.998 3.815 4.184C3.815 6.038 4.86 7.555 6.384 8.11C7.143 8.385 7.608 7.663 7.543 7.084C7.488 6.604 7.169 6.291 6.814 6.066C6.329 5.759 5.814 5.058 5.814 4.189C5.814 3.085 6.485 2.094 7.314 2.094C8.143 2.094 8.814 2.999 8.814 3.999H9.83C9.827 4.061 9.814 4.12 9.814 4.183C9.814 6.037 10.859 7.554 12.383 8.109C13.142 8.384 13.607 7.662 13.542 7.083C13.487 6.604 13.168 6.291 12.813 6.066C12.328 5.759 11.813 5.058 11.813 4.189C11.813 3.085 12.484 2.094 13.313 2.094C14.142 2.094 14.815 3 14.815 4H15.831C15.828 4.062 15.815 4.121 15.815 4.184C15.815 6.038 16.86 7.555 18.384 8.11C19.143 8.385 19.608 7.663 19.543 7.084C19.488 6.605 19.169 6.292 18.814 6.067C18.329 5.76 17.814 5.059 17.814 4.19C17.814 3.086 18.485 2.095 19.314 2.095C20.143 2.095 20.815 3 20.815 4H21.831C21.828 4.062 21.815 4.121 21.815 4.184C21.815 6.038 22.86 7.555 24.384 8.11C25.143 8.385 25.608 7.663 25.543 7.084C25.488 6.605 25.169 6.292 24.814 6.067C24.329 5.76 23.814 5.059 23.814 4.19C23.814 3.086 24.485 2.095 25.314 2.095C26.143 2.095 26.815 3 26.815 4H28.811C28.79 2 27.235 0.179 25.315 0.179Z" fill="#66757F"/>
<path d="M9 15H13V19H9V15ZM14 15H18V19H14V15ZM19 15H23V19H19V15ZM24 15H28V19H24V15ZM4 20H8V24H4V20ZM9 20H13V24H9V20ZM14 20H18V24H14V20ZM19 20H23V24H19V20ZM24 20H28V24H24V20ZM4 25H8V29H4V25ZM9 25H13V29H9V25ZM14 25H18V29H14V25ZM19 25H23V29H19V25ZM24 25H28V29H24V25ZM4 30H8V34H4V30ZM9 30H13V34H9V30ZM14 30H18V34H14V30Z" fill="white"/>
</svg>
