<svg width="159" height="159" viewBox="0 0 159 159" fill="none" xmlns="http://www.w3.org/2000/svg">
<g clip-path="url(#clip0)">
<path d="M140.945 149.523C140.945 154.368 137.012 158.3 132.167 158.3H26.8334C21.9881 158.3 18.0557 154.368 18.0557 149.523V31.0227C18.0557 26.1773 21.9881 22.2449 26.8334 22.2449H132.167C137.012 22.2449 140.945 26.1773 140.945 31.0227V149.523Z" fill="#C1694F"/>
<path d="M127.778 140.745C127.778 143.172 125.816 145.134 123.389 145.134H35.6111C33.1884 145.134 31.2222 143.172 31.2222 140.745V39.8005C31.2222 37.3778 33.1884 35.4116 35.6111 35.4116H123.389C125.816 35.4116 127.778 37.3778 127.778 39.8005V140.745Z" fill="white"/>
<path d="M110.222 13.4672H92.6667C92.6667 6.19482 86.7724 0.300537 79.5 0.300537C72.2276 0.300537 66.3333 6.19482 66.3333 13.4672H48.7778C43.9324 13.4672 40 17.3996 40 22.245V44.1894H119V22.245C119 17.3996 115.068 13.4672 110.222 13.4672Z" fill="#CCD6DD"/>
<path d="M79.4999 22.245C84.3478 22.245 88.2777 18.3151 88.2777 13.4672C88.2777 8.6194 84.3478 4.68945 79.4999 4.68945C74.6521 4.68945 70.7222 8.6194 70.7222 13.4672C70.7222 18.3151 74.6521 22.245 79.4999 22.245Z" fill="#292F33"/>
<path d="M88.2778 61.7451C88.2778 64.1678 86.3159 66.134 83.8889 66.134H44.3889C41.9662 66.134 40 64.1678 40 61.7451C40 59.3224 41.9662 57.3562 44.3889 57.3562H83.8889C86.3159 57.3562 88.2778 59.3224 88.2778 61.7451ZM119 79.3006C119 81.7233 117.038 83.6895 114.611 83.6895H44.3889C41.9662 83.6895 40 81.7233 40 79.3006C40 76.878 41.9662 74.9118 44.3889 74.9118H114.611C117.038 74.9118 119 76.878 119 79.3006ZM119 96.8562C119 99.2833 117.038 101.245 114.611 101.245H44.3889C41.9662 101.245 40 99.2833 40 96.8562C40 94.4291 41.9662 92.4673 44.3889 92.4673H114.611C117.038 92.4673 119 94.4291 119 96.8562ZM119 114.412C119 116.839 117.038 118.801 114.611 118.801H44.3889C41.9662 118.801 40 116.839 40 114.412C40 111.985 41.9662 110.023 44.3889 110.023H114.611C117.038 110.023 119 111.985 119 114.412ZM119 131.967C119 134.394 117.038 136.356 114.611 136.356H75.1111C72.6884 136.356 70.7222 134.394 70.7222 131.967C70.7222 129.54 72.6884 127.578 75.1111 127.578H114.611C117.038 127.578 119 129.54 119 131.967Z" fill="#99AAB5"/>
</g>
<defs>
<clipPath id="clip0">
<rect x="0.5" y="0.300537" width="158" height="158" fill="white"/>
</clipPath>
</defs>
</svg>
