<svg width="36" height="36" viewBox="0 0 36 36" fill="none" xmlns="http://www.w3.org/2000/svg">
<path d="M29.536 0C31.224 18.224 19.224 31.224 0 29.536C8.199 37.253 21.091 37.124 29.107 29.107C37.124 21.091 37.254 8.199 29.536 0Z" fill="#FFD983"/>
<path d="M29.929 15.1393C29.476 15.5933 29.476 16.3283 29.929 16.7833C30.383 17.2363 31.118 17.2363 31.572 16.7833C32.026 16.3283 32.027 15.5933 31.572 15.1393C31.119 14.6853 30.383 14.6853 29.929 15.1393ZM13.907 29.5193C13.225 30.2003 13.225 31.3023 13.907 31.9843C14.587 32.6663 15.691 32.6663 16.371 31.9843C17.052 31.3023 17.052 30.2003 16.371 29.5193C15.691 28.8373 14.587 28.8373 13.907 29.5193ZM27.875 27.3723C26.74 28.5073 24.901 28.5073 23.767 27.3723C22.632 26.2373 22.632 24.3973 23.767 23.2653C24.902 22.1293 26.741 22.1293 27.875 23.2653C29.01 24.3983 29.01 26.2383 27.875 27.3723Z" fill="#FFCC4D"/>
</svg>
