<svg width="157" height="156" viewBox="0 0 157 156" fill="none" xmlns="http://www.w3.org/2000/svg">
<path d="M156.069 78C156.069 121.078 121.147 156 78.0693 156C34.996 156 0.0693359 121.078 0.0693359 78C0.0693359 34.9267 34.996 0 78.0693 0C121.147 0 156.069 34.9267 156.069 78Z" fill="#FFCC4D"/>
<path d="M49.9027 86.6666C55.8858 86.6666 60.736 79.8762 60.736 71.4999C60.736 63.1236 55.8858 56.3333 49.9027 56.3333C43.9196 56.3333 39.0693 63.1236 39.0693 71.4999C39.0693 79.8762 43.9196 86.6666 49.9027 86.6666Z" fill="#664500"/>
<path d="M106.236 86.6666C112.219 86.6666 117.069 79.8762 117.069 71.4999C117.069 63.1236 112.219 56.3333 106.236 56.3333C100.253 56.3333 95.4028 63.1236 95.4028 71.4999C95.4028 79.8762 100.253 86.6666 106.236 86.6666Z" fill="#664500"/>
</svg>
