<svg width="137" height="176" viewBox="0 0 137 176" fill="none" xmlns="http://www.w3.org/2000/svg">
<path d="M136.349 175.596V152.11C136.349 134.814 117.768 123.405 100.467 123.405H37.8376C20.5467 123.405 0.651367 134.814 0.651367 152.11V175.596H136.349Z" fill="#3B88C3"/>
<path d="M68.2126 8.46777C89.6371 8.46777 125.346 19.1826 125.346 65.6015C125.346 112.031 125.346 122.74 114.631 122.74C103.917 122.74 89.6319 112.026 68.2074 112.026C46.7829 112.026 32.7956 122.74 21.7833 122.74C9.84717 122.74 11.0684 79.8862 11.0684 65.6015C11.0737 19.1826 46.7881 8.46777 68.2126 8.46777Z" fill="#FFAC33"/>
<path d="M29.3562 157.329H18.918C18.918 135.962 28.7143 112.967 50.2327 112.967V123.405C33.7194 123.405 29.3562 145.597 29.3562 157.329ZM112.862 136.453H102.424C102.424 134.308 99.7048 123.405 86.7665 123.405V112.967C105.206 112.967 112.862 128.264 112.862 136.453Z" fill="#292F33"/>
<path d="M24.1378 172.987C32.7852 172.987 39.7952 165.977 39.7952 157.329C39.7952 148.682 32.7852 141.672 24.1378 141.672C15.4905 141.672 8.48047 148.682 8.48047 157.329C8.48047 165.977 15.4905 172.987 24.1378 172.987Z" fill="#CCD6DD"/>
<path d="M24.1375 167.768C29.9023 167.768 34.5757 163.095 34.5757 157.33C34.5757 151.565 29.9023 146.892 24.1375 146.892C18.3726 146.892 13.6992 151.565 13.6992 157.33C13.6992 163.095 18.3726 167.768 24.1375 167.768Z" fill="#F5F8FA"/>
<path d="M128.52 165.158H118.082C118.082 160.8 117.518 139.062 106.338 139.062C95.1591 139.062 94.5955 160.8 94.5955 165.158H84.1572C84.1572 142.282 92.4504 128.624 106.338 128.624C120.227 128.624 128.52 142.282 128.52 165.158Z" fill="#292F33"/>
<path d="M89.3763 170.378C92.2588 170.378 94.5955 168.041 94.5955 165.159C94.5955 162.276 92.2588 159.939 89.3763 159.939C86.4939 159.939 84.1572 162.276 84.1572 165.159C84.1572 168.041 86.4939 170.378 89.3763 170.378Z" fill="#CCD6DD"/>
<path d="M123.301 170.378C126.184 170.378 128.52 168.041 128.52 165.159C128.52 162.276 126.184 159.939 123.301 159.939C120.419 159.939 118.082 162.276 118.082 165.159C118.082 168.041 120.419 170.378 123.301 170.378Z" fill="#CCD6DD"/>
<path d="M50.2334 104.664V123.406L68.5003 149.502L86.7672 123.406V104.664H50.2334Z" fill="#FFDC5D"/>
<path d="M50.2334 112.969C55.5726 118.997 61.2562 120.798 68.4481 120.798C75.6453 120.798 81.4281 118.997 86.7672 112.969V97.6406H50.2334V112.969Z" fill="#F9CA55"/>
<path d="M25.3604 64.0505C25.3604 33.6021 44.5458 8.9209 68.2146 8.9209C91.8728 8.9209 111.058 33.6073 111.058 64.0505C111.058 94.4936 91.8728 117.729 68.2146 117.729C44.5458 117.729 25.3604 94.4936 25.3604 64.0505Z" fill="#FFDC5D"/>
<path d="M68.2128 104.886C59.8309 104.886 55.4416 100.742 54.9719 100.268C53.5732 98.874 53.5732 96.6142 54.9719 95.2207C56.3602 93.8376 58.5835 93.8272 59.9875 95.1841C60.1701 95.3511 62.8632 97.7467 68.2128 97.7467C73.6303 97.7467 76.3285 95.2781 76.4381 95.1789C77.863 93.8428 80.1072 93.8846 81.4642 95.2833C82.8211 96.6872 82.8211 98.8897 81.4433 100.268C80.9788 100.742 76.5947 104.886 68.2128 104.886Z" fill="#DF1F32"/>
<path d="M14.8747 81.1773C14.7651 75.9582 14.6451 80.0082 14.6451 78.7504C14.6451 60.8906 25.3599 81.3287 25.3599 68.6096C25.3599 55.8802 32.4997 54.6068 39.6394 47.467C43.2145 43.8919 50.3543 36.8931 50.3543 36.8931C50.3543 36.8931 68.2089 47.681 82.4936 47.681C96.7732 47.681 111.063 54.8573 111.063 69.142C111.063 83.4215 121.778 60.8749 121.778 78.7295C121.778 80.003 121.658 75.9582 121.569 81.1773H125.322C125.353 70.7391 125.353 71.1357 125.353 64.4657C125.353 18.0468 89.6438 0.755859 68.2141 0.755859C46.7896 0.755859 11.0752 17.7545 11.0752 64.1786C11.0752 68.3174 10.9708 70.7391 11.1169 81.1773H14.8747Z" fill="#FFAC33"/>
<path d="M50.7953 75.3672C48.3684 75.3672 46.3799 73.3787 46.3799 70.9466V66.5365C46.3799 64.1096 48.3684 62.1211 50.7953 62.1211C53.2274 62.1211 55.2159 64.1096 55.2159 66.5365V70.9466C55.2159 73.3787 53.2274 75.3672 50.7953 75.3672ZM86.1026 75.3672C83.6757 75.3672 81.6872 73.3787 81.6872 70.9466V66.5365C81.6872 64.1096 83.6757 62.1211 86.1026 62.1211C88.5295 62.1211 90.518 64.1096 90.518 66.5365V70.9466C90.518 73.3787 88.5295 75.3672 86.1026 75.3672Z" fill="#662113"/>
<path d="M72.861 89.0072H64.0407C62.8246 89.0072 61.833 88.0156 61.833 86.7995V86.001C61.833 84.7849 62.8194 83.7881 64.0407 83.7881H72.861C74.0771 83.7881 75.0739 84.7797 75.0739 86.001V86.7995C75.0739 88.0208 74.0771 89.0072 72.861 89.0072Z" fill="#C1694F"/>
<path d="M34.2831 65.1839C34.2831 72.7412 30.4522 78.8684 25.7289 78.8684C21.0056 78.8684 17.1748 72.7412 17.1748 65.1839C17.1748 57.6266 21.0056 51.4941 25.7289 51.4941C30.4522 51.4941 34.2831 57.6214 34.2831 65.1839ZM119.819 65.1839C119.819 72.7412 115.994 78.8684 111.265 78.8684C106.542 78.8684 102.711 72.7412 102.711 65.1839C102.711 57.6266 106.537 51.4941 111.265 51.4941C115.994 51.4941 119.819 57.6214 119.819 65.1839Z" fill="#FFDC5D"/>
</svg>
