<svg width="159" height="159" viewBox="0 0 159 159" fill="none" xmlns="http://www.w3.org/2000/svg">
<g clip-path="url(#clip0)">
<path d="M101.414 149.315C101.414 149.315 92.6485 144.932 79.5001 144.932C66.3518 144.932 57.5862 149.315 57.5862 149.315L61.9646 9.06592H97.0357L101.414 149.315Z" fill="#9AAAB4"/>
<path d="M79.4038 0.300537H83.7866C92.5522 0.300537 101.322 9.06612 101.322 9.06612C101.322 9.06612 115.465 14.6498 128.614 19.0326C141.762 23.4154 158.513 98.8213 158.39 104.032C158.294 108.24 137.59 112.211 136.586 109.568C134.32 103.603 129.056 86.3567 124.183 62.2162C124.183 110.427 134.772 148.588 134.772 148.588C134.772 148.588 110.083 158.081 96.935 158.081C92.5522 140.55 92.5566 83.5736 92.5566 70.4252C92.5566 57.2768 79.4038 0.300537 79.4038 0.300537Z" fill="#E1E8ED"/>
<path d="M79.4993 0.300537H75.1165C66.3509 0.300537 57.5809 9.06612 57.5809 9.06612C57.5809 9.06612 43.4377 14.6498 30.2893 19.0326C17.1409 23.4154 0.394251 98.8213 0.512587 104.032C0.609008 108.24 21.3133 112.211 22.3126 109.568C24.5785 103.603 29.8378 87.6846 34.7159 62.2162C34.7159 110.427 24.1271 148.588 24.1271 148.588C24.1271 148.588 48.8197 158.081 61.9681 158.081C66.3509 140.55 66.3465 83.5736 66.3465 70.4252C66.3465 57.2768 79.4993 0.300537 79.4993 0.300537Z" fill="#E1E8ED"/>
<path d="M105.805 17.8317C105.805 17.8317 92.6481 0.300537 83.8825 0.300537H75.1169C66.3513 0.300537 53.1942 17.8317 53.1942 17.8317L61.9641 22.2145L53.1942 26.5973L66.3469 70.4427H92.6525L105.805 26.5973L97.0353 22.2145L105.805 17.8317ZM53.9919 123.751C51.6383 124.022 42.2986 122.655 40.4753 121.743C37.999 120.503 37.6353 119.048 37.9202 116.449C38.205 113.846 39.2832 110.558 39.7828 101.109C43.7668 102.937 52.7165 103.485 59.6588 103.664C59.6588 111.606 58.2037 118.64 58.2037 118.64C57.9013 121.046 56.3454 123.475 53.9919 123.751ZM105.008 123.751C107.361 124.022 116.696 122.655 118.524 121.743C121 120.503 121.364 119.048 121.079 116.449C120.794 113.846 119.716 110.558 119.217 101.109C115.233 102.937 106.283 103.485 99.3406 103.664C99.3406 111.606 100.796 118.64 100.796 118.64C101.098 121.046 102.654 123.475 105.008 123.751Z" fill="#F5F8FA"/>
<path d="M103.881 69.6974C104.738 69.6974 105.433 65.7317 105.433 60.8398C105.433 55.9479 104.738 51.9822 103.881 51.9822C103.024 51.9822 102.33 55.9479 102.33 60.8398C102.33 65.7317 103.024 69.6974 103.881 69.6974Z" fill="#BB1A34"/>
<path d="M108.264 69.6974C109.121 69.6974 109.816 65.7317 109.816 60.8398C109.816 55.9479 109.121 51.9822 108.264 51.9822C107.408 51.9822 106.713 55.9479 106.713 60.8398C106.713 65.7317 107.408 69.6974 108.264 69.6974Z" fill="#4289C1"/>
<path d="M114.203 74.444C112.494 75.1146 104.521 75.1759 102.33 74.2599C100.139 73.3483 99.3145 72.3403 99.1349 69.7851C98.9508 67.2299 99.4066 57.2766 99.4066 57.2766H116.758C116.758 57.2766 117.306 64.3986 117.306 70.425C117.31 72.9889 116.193 73.6639 114.203 74.444Z" fill="#F5F8FA"/>
<path d="M92.6529 15.6401H66.3474V11.2573C66.3474 6.4143 70.27 2.4917 75.113 2.4917H83.8873C88.7303 2.4917 92.6529 6.4143 92.6529 11.2573V15.6401Z" fill="#CCD6DD"/>
<path d="M92.6529 139.287H66.3474V15.6442C66.3474 10.8013 70.27 6.87866 75.113 6.87866H83.8873C88.7303 6.87866 92.6529 10.8013 92.6529 15.6442V139.287Z" fill="#9AAAB4"/>
</g>
<defs>
<clipPath id="clip0">
<rect x="0.609863" y="0.300537" width="157.781" height="157.781" fill="white"/>
</clipPath>
</defs>
</svg>
