<svg width="191" height="128" viewBox="0 0 191 128" fill="none" xmlns="http://www.w3.org/2000/svg">
<path d="M185.423 43.2677C182.498 43.2677 180.133 45.6322 180.133 48.5573V85.5843H10.8672V6.24074C10.8672 3.3209 8.50279 0.951172 5.57766 0.951172C2.65252 0.951172 0.288086 3.3209 0.288086 6.24074V122.611C0.288086 125.536 2.65252 127.901 5.57766 127.901C8.50279 127.901 10.8672 125.536 10.8672 122.611V112.032H180.133V122.611C180.133 125.536 182.498 127.901 185.423 127.901C188.348 127.901 190.713 125.536 190.713 122.611V48.5573C190.713 45.6322 188.348 43.2677 185.423 43.2677Z" fill="#C1694F"/>
<path d="M90.213 27.3975H79.6338C73.8153 27.3975 69.0547 32.1581 69.0547 37.9766V59.1349H90.213V27.3975Z" fill="#AA8DD8"/>
<path d="M164.265 33.8613L90.2105 27.3975C73.2416 27.3975 69.0523 59.1349 69.0523 59.1349H63.7627V90.8723H180.133V48.5557C180.133 38.3733 174.447 33.8613 164.265 33.8613Z" fill="#55ACEE"/>
<path d="M69.0525 59.1357H21.4463C15.6066 59.1357 10.8672 63.8752 10.8672 69.7149V90.8732H63.7629L69.0525 59.1357Z" fill="#BDDDF4"/>
<path d="M11.4715 44.7414C9.9746 51.1577 21.5059 58.0605 37.237 60.1711C52.9682 62.2763 66.9327 58.7799 68.4349 52.369C69.9319 45.9527 58.4006 39.0498 42.6694 36.9393C26.9435 34.8288 12.9738 38.3252 11.4715 44.7414Z" fill="#55ACEE"/>
<path d="M70.0544 53.8447C69.3456 56.992 69.0547 59.1343 69.0547 59.1343H180.136V53.8447H70.0544Z" fill="#226699"/>
<path d="M180.133 48.5557H71.4429C70.8611 50.4864 70.4009 52.2848 70.0518 53.8452H180.133V48.5557Z" fill="#3B88C3"/>
<path d="M71.2183 48.6457C75.2446 40.8612 69.4803 29.8811 58.3433 24.1208C47.2064 18.3605 34.9142 20.0014 30.8879 27.7859C26.8616 35.5703 32.6259 46.5505 43.7629 52.3108C54.8998 58.071 67.192 56.4301 71.2183 48.6457Z" fill="#FFDC5D"/>
<path d="M41.9444 55.8324C41.9444 55.8324 21.7805 45.4013 30.8892 27.7818C38.1782 13.6851 58.3473 24.1161 58.3473 24.1161C58.3473 24.1161 48.2654 18.9006 42.796 29.4745C39.1515 36.5254 54.2743 44.3434 41.9444 55.8324Z" fill="#FFAC33"/>
</svg>
