<svg width="157" height="157" viewBox="0 0 157 157" fill="none" xmlns="http://www.w3.org/2000/svg">
<path d="M156.5 78.4436C156.5 121.521 121.578 156.444 78.5 156.444C35.4267 156.444 0.5 121.521 0.5 78.4436C0.5 35.3703 35.4267 0.443604 78.5 0.443604C121.578 0.443604 156.5 35.3703 156.5 78.4436Z" fill="#FFCB4C"/>
<path d="M53.2643 80.2459C59.5992 80.2459 64.7346 73.0559 64.7346 64.1865C64.7346 55.3172 59.5992 48.1272 53.2643 48.1272C46.9294 48.1272 41.7939 55.3172 41.7939 64.1865C41.7939 73.0559 46.9294 80.2459 53.2643 80.2459Z" fill="#65471B"/>
<path d="M108.322 92.2067C124.792 92.2067 138.144 78.855 138.144 62.3847C138.144 45.9145 124.792 32.5627 108.322 32.5627C91.8518 32.5627 78.5 45.9145 78.5 62.3847C78.5 78.855 91.8518 92.2067 108.322 92.2067Z" fill="#F4F7F9"/>
<path d="M64.7415 43.5427C63.3462 43.5427 61.9682 42.91 61.0668 41.7097C56.7725 35.9853 52.2788 32.9173 47.7072 32.5923C41.6838 32.1807 36.7742 36.696 35.8598 37.6103C34.0658 39.4043 31.1625 39.4043 29.3728 37.6103C27.5788 35.8163 27.5788 32.913 29.3728 31.1233C31.3532 29.143 38.5985 22.734 48.3572 23.4403C55.7022 23.9603 62.4448 28.2547 68.4075 36.202C69.9285 38.23 69.5168 41.1073 67.4932 42.624C66.6612 43.2437 65.6948 43.5427 64.7415 43.5427Z" fill="#65471B"/>
<path d="M142.736 156.443C140.201 156.443 138.147 154.389 138.147 151.854V64.6806C138.147 62.1456 140.201 60.0916 142.736 60.0916C145.271 60.0916 147.325 62.1456 147.325 64.6806V151.859C147.321 154.389 145.271 156.443 142.736 156.443Z" fill="#292F33"/>
<path d="M142.739 55.5031C142.505 55.5031 142.284 55.5551 142.055 55.5724C138.883 39.8511 124.968 27.9734 108.324 27.9734C89.3484 27.9734 73.9131 43.4087 73.9131 62.3844C73.9131 81.3601 89.3484 96.7954 108.324 96.7954C123.352 96.7954 136.127 87.0974 140.807 73.6424C141.431 73.7767 142.072 73.8547 142.735 73.8547C147.805 73.8547 151.913 69.7467 151.913 64.6767C151.913 59.611 147.805 55.5031 142.739 55.5031ZM108.324 87.6217C94.4098 87.6217 83.0911 76.3031 83.0911 62.3844C83.0911 48.4657 94.4141 37.1471 108.324 37.1471C122.238 37.1471 133.561 48.4657 133.561 62.3844C133.561 76.3031 122.238 87.6217 108.324 87.6217Z" fill="#67757F"/>
<path d="M92.2586 124.325C91.5696 124.325 90.8676 124.169 90.209 123.84C82.3266 119.897 74.6653 119.897 66.783 123.84C64.5123 124.971 61.7563 124.057 60.6253 121.786C59.49 119.52 60.4086 116.764 62.6793 115.628C73.1703 110.385 83.813 110.385 94.3126 115.628C96.579 116.764 97.4976 119.52 96.3666 121.786C95.565 123.398 93.9443 124.325 92.2586 124.325Z" fill="#65471B"/>
<path d="M122.044 41.2245C118.092 38.6548 113.386 37.1511 108.32 37.1511C94.3843 37.1511 83.083 48.4481 83.083 62.3885C83.083 67.4541 84.591 72.1601 87.1563 76.1121L122.044 41.2245ZM97.552 85.1818C100.824 86.7288 104.464 87.6215 108.32 87.6215C122.256 87.6215 133.558 76.3245 133.558 62.3841C133.558 58.5275 132.665 54.8831 131.118 51.6158L97.552 85.1818Z" fill="#BDDDF4"/>
</svg>
