<svg width="163" height="166" viewBox="0 0 163 166" fill="none" xmlns="http://www.w3.org/2000/svg">
<path d="M12.5908 120.044H49.3555V166H12.5908V120.044ZM113.694 120.044H150.458V166H113.694V120.044Z" fill="#FFDC5D"/>
<path d="M150.458 132.545C150.458 132.545 136.671 141.736 113.694 137.141V114.163H150.458V132.545ZM12.5908 132.545C12.5908 132.545 26.3776 141.736 49.3555 137.141V114.163H12.5908V132.545Z" fill="#F9CA55"/>
<path d="M17.1074 86.0551H53.8721V122.82H17.1074V86.0551ZM109.125 83.7573H145.889V120.522H109.125V83.7573Z" fill="#EF9645"/>
<path d="M0.516951 54.9477C0.516951 54.9477 0.530738 49.3181 6.15573 49.3319C11.7899 49.3503 11.7715 54.9799 11.7715 54.9799L11.6842 81.1012C12.5803 80.6876 13.5178 80.3153 14.5013 79.9936L14.6162 43.7391C14.6162 43.7391 14.6346 38.1095 20.255 38.1279C25.88 38.1417 25.8662 43.7759 25.8662 43.7759L25.7697 77.8751C26.6842 77.7923 27.6263 77.728 28.573 77.682L28.7016 38.1509C28.7016 38.1509 28.7154 32.5213 34.345 32.5443C39.9746 32.5626 39.9516 38.1922 39.9516 38.1922L39.823 77.7142C40.788 77.7694 41.7163 77.8659 42.6446 77.9532L42.7595 41.0093C42.7595 41.0093 42.7779 35.3797 48.3983 35.4027C54.0233 35.4165 54.0003 41.0415 54.0003 41.0415L53.89 80.1085L53.8762 83.2381V86.046C36.9921 86.0046 25.6915 100.026 25.641 114.097C25.641 116.91 28.4535 116.928 28.4535 116.928C28.4994 100.026 39.7908 88.8263 56.6795 88.8769L64.9562 69.6306C64.9562 69.6306 66.7714 64.3043 72.1069 66.1288C77.4286 67.9302 75.6225 73.2657 75.6225 73.2657L71.5187 87.535C69.8918 93.2059 68.3707 98.9136 67.5711 104.741C65.2825 121.211 51.1143 133.877 34.0279 133.831C15.3928 133.753 0.319341 118.597 0.379083 99.9614C0.383679 98.978 0.443421 98.0405 0.535333 97.1581L0.388274 97.1397L0.516951 54.9477ZM162.484 54.9477C162.484 54.9477 162.47 49.3181 156.845 49.3319C151.211 49.3503 151.224 54.9799 151.224 54.9799L151.312 81.1012C150.42 80.6876 149.478 80.3153 148.499 79.9936L148.384 43.7391C148.384 43.7391 148.366 38.1095 142.746 38.1279C137.116 38.1417 137.13 43.7759 137.13 43.7759L137.231 77.8751C136.321 77.7923 135.379 77.728 134.428 77.682L134.303 38.1509C134.303 38.1509 134.285 32.5213 128.656 32.5443C123.026 32.5626 123.049 38.1922 123.049 38.1922L123.178 77.7142C122.213 77.7694 121.284 77.8659 120.356 77.9532L120.241 41.0093C120.241 41.0093 120.218 35.3797 114.598 35.4027C108.973 35.4165 108.996 41.0415 108.996 41.0415L109.106 80.1085L109.12 83.2381V86.046C126.004 86.0046 137.304 100.026 137.36 114.097C137.36 116.91 134.547 116.928 134.547 116.928C134.497 100.026 123.205 88.8263 106.321 88.8769L98.0444 69.6306C98.0444 69.6306 96.2337 64.3043 90.8936 66.1288C85.5765 67.9302 87.378 73.2657 87.378 73.2657L91.4819 87.535C93.1087 93.2059 94.6298 98.9136 95.4295 104.741C97.7181 121.211 111.882 133.877 128.973 133.831C147.608 133.753 162.686 118.597 162.621 99.9614C162.617 98.978 162.557 98.0405 162.465 97.1581L162.612 97.1397L162.484 54.9477Z" fill="#FFDC5D"/>
<path d="M106.989 30.2373C106.01 30.2373 105.017 29.9248 104.186 29.2815C102.173 27.7282 101.805 24.8421 103.358 22.8339L117.049 5.1179C118.588 3.11422 121.483 2.7282 123.492 4.29069C125.504 5.844 125.872 8.73002 124.319 10.7383L110.629 28.4543C109.728 29.6261 108.367 30.2373 106.989 30.2373ZM56.3455 30.2373C54.9714 30.2373 53.6111 29.6215 52.7058 28.4497L39.0156 10.7383C37.4669 8.73002 37.8391 5.844 39.8474 4.29069C41.8556 2.74198 44.7371 3.10963 46.295 5.1179L59.9852 22.8339C61.5339 24.8421 61.1663 27.7282 59.158 29.2815C58.317 29.9294 57.329 30.2373 56.3455 30.2373ZM81.5247 28.1326C78.9879 28.1326 76.9291 26.0737 76.9291 23.537V5.15466C76.9291 2.6179 78.9879 0.559082 81.5247 0.559082C84.0661 0.559082 86.1203 2.6179 86.1203 5.15466V23.537C86.1203 26.0737 84.0661 28.1326 81.5247 28.1326Z" fill="#5DADEC"/>
</svg>
