<svg width="161" height="162" viewBox="0 0 161 162" fill="none" xmlns="http://www.w3.org/2000/svg">
<path d="M161 81.3066C161 125.765 124.958 161.807 80.5 161.807C36.0416 161.807 0 125.765 0 81.3066C0 36.8483 36.0416 0.806641 80.5 0.806641C124.958 0.806641 161 36.8483 161 81.3066Z" fill="#FFCC4D"/>
<path d="M53.6669 86.897C59.8417 86.897 64.8474 81.3907 64.8474 74.5984C64.8474 67.8061 59.8417 62.2998 53.6669 62.2998C47.492 62.2998 42.4863 67.8061 42.4863 74.5984C42.4863 81.3907 47.492 86.897 53.6669 86.897Z" fill="#664500"/>
<path d="M107.333 90.2509C113.508 90.2509 118.513 83.2429 118.513 74.5981C118.513 65.9533 113.508 58.9453 107.333 58.9453C101.158 58.9453 96.1523 65.9533 96.1523 74.5981C96.1523 83.2429 101.158 90.2509 107.333 90.2509Z" fill="#664500"/>
<path d="M31.7617 56.9756C32.8753 57.7628 34.3288 58.0311 35.7196 57.5794C54.4448 51.5195 67.146 60.057 67.6781 60.4237C69.7041 61.8191 72.4858 61.3226 73.8945 59.3057C75.3033 57.2887 74.8248 54.5159 72.8167 53.0982C72.1459 52.6242 56.1085 41.5823 32.9692 49.0688C30.6168 49.829 29.3288 52.3514 30.0936 54.6993C30.3977 55.6563 31.0014 56.4345 31.7617 56.9756ZM111.806 117.087H49.1944C46.7258 117.087 44.7222 115.088 44.7222 112.615C44.7222 110.141 46.7258 108.142 49.1944 108.142H111.806C114.279 108.142 116.278 110.141 116.278 112.615C116.278 115.088 114.279 117.087 111.806 117.087ZM134.171 47.3559C132.525 47.3559 130.902 46.6359 129.793 45.2495C123.554 37.4186 110.567 30.5493 106.027 30.5493C103.156 30.5493 97.4184 34.6235 94.3818 37.5617C92.1636 39.7173 88.6216 39.6503 86.4794 37.4365C84.3327 35.2228 84.3819 31.6897 86.5867 29.5386C88.3353 27.8391 97.481 19.3643 106.027 19.3643C114.994 19.3643 130.795 28.5591 138.541 38.2773C140.468 40.6923 140.066 44.2075 137.655 46.1305C136.622 46.9579 135.388 47.3559 134.171 47.3559Z" fill="#664500"/>
</svg>
