<svg width="290" height="149" viewBox="0 0 290 149" fill="none" xmlns="http://www.w3.org/2000/svg">
<path d="M132.752 99.1344C131.047 99.1344 129.669 100.513 129.669 102.218V123.801H31.0021V77.5511C31.0021 75.8491 29.6239 74.4678 27.9188 74.4678C26.2137 74.4678 24.8354 75.8491 24.8354 77.5511V145.384C24.8354 147.09 26.2137 148.468 27.9188 148.468C29.6239 148.468 31.0021 147.09 31.0021 145.384V139.218H129.669V145.384C129.669 147.09 131.047 148.468 132.752 148.468C134.457 148.468 135.835 147.09 135.835 145.384V102.218C135.835 100.513 134.457 99.1344 132.752 99.1344Z" fill="#C1694F"/>
<path d="M77.2523 89.8848H71.0856C67.6939 89.8848 64.9189 92.6598 64.9189 96.0514V108.385H77.2523V89.8848Z" fill="#AA8DD8"/>
<path d="M120.419 93.6526L77.2521 89.8848C67.3608 89.8848 64.9188 108.385 64.9188 108.385H61.8354V126.885H129.669V102.218C129.669 96.2827 126.354 93.6526 120.419 93.6526Z" fill="#55ACEE"/>
<path d="M64.9186 108.385H37.1686C33.7646 108.385 31.002 111.147 31.002 114.551V126.885H61.8353L64.9186 108.385Z" fill="#BDDDF4"/>
<path d="M31.354 99.9943C30.4814 103.734 37.2031 107.758 46.3729 108.988C55.5428 110.216 63.6828 108.178 64.5584 104.441C65.431 100.7 58.7094 96.6767 49.5395 95.4464C40.3728 94.2162 32.2297 96.2543 31.354 99.9943Z" fill="#5C913B"/>
<path d="M65.5017 105.301C65.0885 107.135 64.9189 108.384 64.9189 108.384H129.669V105.301H65.5017Z" fill="#226699"/>
<path d="M129.669 102.218H66.3124C65.9732 103.343 65.705 104.392 65.5015 105.301H129.669V102.218Z" fill="#3B88C3"/>
<path d="M66.1813 102.27C68.5283 97.7328 65.1682 91.3324 58.6764 87.9747C52.1846 84.617 45.0193 85.5735 42.6724 90.1111C40.3254 94.6487 43.6855 101.049 50.1773 104.407C56.6691 107.765 63.8344 106.808 66.1813 102.27Z" fill="#FFDC5D"/>
<path d="M49.1169 106.46C49.1169 106.46 37.3632 100.379 42.6727 90.1087C46.9215 81.8917 58.6783 87.972 58.6783 87.972C58.6783 87.972 52.8015 84.9318 49.6133 91.0954C47.4889 95.2055 56.3041 99.7627 49.1169 106.46Z" fill="#FFAC33"/>
<path d="M117.335 74.4678C137.77 74.4678 154.335 57.9023 154.335 37.4678C154.335 17.0332 137.77 0.467773 117.335 0.467773C96.9009 0.467773 80.3354 17.0332 80.3354 37.4678C80.3354 57.9023 96.9009 74.4678 117.335 74.4678Z" fill="#99AAB5"/>
<path d="M117.335 66.246C133.229 66.246 146.113 53.3617 146.113 37.4682C146.113 21.5747 133.229 8.69043 117.335 8.69043C101.442 8.69043 88.5576 21.5747 88.5576 37.4682C88.5576 53.3617 101.442 66.246 117.335 66.246Z" fill="#E1E8ED"/>
<path d="M115.28 37.4674C115.28 38.6042 116.201 39.523 117.335 39.523C118.472 39.523 119.391 38.6042 119.391 37.4674V14.8563C119.391 13.7217 118.472 12.8008 117.335 12.8008C116.201 12.8008 115.28 13.7217 115.28 14.8563V37.4674Z" fill="#66757F"/>
<path d="M99.5323 27.1899C98.965 28.1745 99.3021 29.4305 100.285 29.9978L116.308 39.2478C117.29 39.8152 118.546 39.478 119.114 38.4955C119.681 37.5129 119.344 36.2549 118.363 35.6876L102.34 26.4376C101.358 25.8703 100.1 26.2074 99.5323 27.1899Z" fill="#66757F"/>
<path d="M14.01 63.1289C13.6728 63.1289 13.3694 63.0109 13.0996 62.7749C12.8636 62.5051 12.7456 62.2016 12.7456 61.8645V37.7895L5.81643 43.1002C5.5804 43.3025 5.32751 43.4036 5.05776 43.4036C4.68686 43.4036 4.34968 43.2013 4.04621 42.7967L1.06213 38.9022C0.893538 38.6325 0.809242 38.3796 0.809242 38.1436C0.809242 37.6715 1.01155 37.3175 1.41617 37.0814L13.049 28.0786C13.4199 27.8426 13.8246 27.7246 14.2629 27.7246H20.5851C20.956 27.7246 21.2595 27.8426 21.4955 28.0786C21.7315 28.3146 21.8495 28.6181 21.8495 28.989V61.8645C21.8495 62.2016 21.7315 62.5051 21.4955 62.7749C21.2595 63.0109 20.956 63.1289 20.5851 63.1289H14.01ZM40.6933 63.6853C37.6586 63.6853 35.0623 63.2132 32.9043 62.2691C30.7463 61.2913 29.0941 59.9931 27.9477 58.3746C26.835 56.7561 26.2449 55.0028 26.1775 53.1145C26.1775 52.8111 26.2786 52.5582 26.4809 52.3559C26.6833 52.1536 26.9361 52.0524 27.2396 52.0524H34.017C34.7925 52.0524 35.332 52.3727 35.6355 53.0134C36.5459 55.2725 38.2487 56.4021 40.7438 56.4021C42.2274 56.4021 43.475 55.9469 44.4866 55.0365C45.5318 54.0924 46.0545 52.7942 46.0545 51.142C46.0545 49.6584 45.5487 48.4445 44.5372 47.5004C43.5593 46.5563 42.2949 46.0842 40.7438 46.0842C39.8672 46.0842 39.1591 46.2023 38.6196 46.4383C38.1138 46.6406 37.5912 46.9441 37.0517 47.3487C36.4785 47.787 36.0233 48.0062 35.6861 48.0062H29.0604C28.7569 48.0062 28.4872 47.905 28.2512 47.7027C28.0488 47.4667 27.9477 47.197 27.9477 46.8935L29.7685 29.2419C29.8022 28.7698 29.9708 28.3989 30.2743 28.1292C30.6114 27.8594 30.9992 27.7246 31.4376 27.7246H51.7192C52.0901 27.7246 52.3935 27.8426 52.6296 28.0786C52.8993 28.3146 53.0342 28.6181 53.0342 28.989V33.7433C53.0342 34.1142 52.8993 34.4177 52.6296 34.6537C52.3935 34.8897 52.0901 35.0077 51.7192 35.0077H37.0517L36.3942 41.5323C37.2371 40.959 38.1644 40.5376 39.1759 40.2678C40.1875 39.9644 41.5025 39.8126 43.121 39.8126C45.2452 39.8126 47.2515 40.3015 49.1397 41.2794C51.028 42.2235 52.5284 43.5722 53.6411 45.3256C54.7876 47.0789 55.3608 49.0852 55.3608 51.3443C55.3608 53.7383 54.7707 55.8794 53.5906 57.7677C52.4104 59.6222 50.7076 61.0721 48.4822 62.1174C46.2905 63.1626 43.6942 63.6853 40.6933 63.6853Z" fill="#FFDC5D"/>
<path d="M200.529 69.9678C198.044 69.9678 196.029 71.9825 196.029 74.4678C196.029 76.9531 198.044 78.9678 200.529 78.9678L200.529 69.9678ZM288.507 77.6498C290.264 75.8925 290.264 73.0432 288.507 71.2859L259.869 42.648C258.112 40.8907 255.262 40.8906 253.505 42.648C251.748 44.4054 251.748 47.2546 253.505 49.012L278.961 74.4678L253.505 99.9237C251.748 101.681 251.748 104.53 253.505 106.288C255.262 108.045 258.112 108.045 259.869 106.288L288.507 77.6498ZM200.529 78.9678L285.325 78.9678V69.9678L200.529 69.9678L200.529 78.9678Z" fill="#404B69"/>
</svg>
