<svg width="199" height="185" viewBox="0 0 199 185" fill="none" xmlns="http://www.w3.org/2000/svg">
<path d="M79.4052 161.034C79.4052 166.167 75.2433 170.329 70.1101 170.329H9.69163C4.55839 170.329 0.396484 166.167 0.396484 161.034V115.285C0.396484 110.152 13.8535 100.615 18.9868 100.615H66.9149C74.1047 100.615 79.4052 105.988 79.4052 113.106V161.034Z" fill="#3E721D"/>
<path d="M74.7575 170.329C74.7575 175.462 70.5956 179.624 65.4624 179.624H14.3391C9.20585 179.624 5.04395 175.462 5.04395 170.329V114.558C5.04395 104.986 4.99515 105.263 16.6629 105.263H65.4624C70.5956 105.263 74.7575 109.424 74.7575 114.558V170.329Z" fill="#CCD6DD"/>
<path d="M70.1101 172.652C70.1101 176.503 66.9892 179.624 63.1387 179.624H7.36784C3.51733 179.624 0.396484 176.503 0.396484 172.652V116.882C0.396484 113.031 3.51733 109.91 7.36784 109.91H63.1387C66.9892 109.91 70.1101 113.031 70.1101 116.882V172.652Z" fill="#E1E8ED"/>
<path d="M70.11 174.976C70.11 180.109 65.9481 184.271 60.8149 184.271H12.0154C6.88212 184.271 2.72021 180.109 2.72021 174.976V123.853C2.72021 118.72 6.88212 114.558 12.0154 114.558H60.8149C65.9481 114.558 70.11 118.72 70.11 123.853V174.976Z" fill="#5C913B"/>
<path d="M65.4625 174.976C65.4625 180.109 61.3005 184.271 56.1673 184.271H12.0154C6.88212 184.271 2.72021 180.109 2.72021 174.976V128.5C2.72021 123.367 6.88212 119.205 12.0154 119.205H56.9458C62.079 119.205 65.4625 122.589 65.4625 127.722V174.976Z" fill="#77B255"/>
<path d="M12.0154 114.558C8.09286 114.558 7.99294 110.092 9.69163 108.168C11.625 105.981 14.6297 105.263 20.0046 105.263H23.6343V100.615H17.316C8.09286 100.615 0.396484 106.425 0.396484 113.106V174.976C0.396484 180.11 4.55839 184.272 9.69163 184.272H14.3392V114.558H12.0154Z" fill="#3E721D"/>
<path d="M149.292 184.272C149.292 184.272 139.997 184.272 139.997 174.976V109.91C139.997 109.91 139.997 100.615 149.292 100.615H181.825C181.825 100.615 191.12 100.615 191.12 109.91V174.976C191.12 174.976 191.12 184.272 181.825 184.272H149.292Z" fill="#545E68"/>
<path d="M144.644 112.233H186.472V172.652H144.644V112.233Z" fill="#55ACEE"/>
<path d="M172.657 144.739L197.137 120.261C199.09 118.308 199.09 115.141 197.137 113.188C195.183 111.233 192.017 111.233 190.065 113.188L165.585 137.666L141.107 113.188C139.154 111.233 135.985 111.233 134.034 113.188C132.079 115.141 132.079 118.308 134.034 120.261L158.512 144.739L133.978 169.274C132.023 171.229 132.023 174.395 133.978 176.347C134.954 177.324 136.235 177.812 137.515 177.812C138.796 177.812 140.076 177.324 141.053 176.347L165.587 151.811L190.065 176.289C191.041 177.266 192.321 177.754 193.602 177.754C194.882 177.754 196.161 177.266 197.139 176.289C199.092 174.335 199.092 171.169 197.139 169.216L172.657 144.739Z" fill="#DD2E44"/>
<path d="M47.0002 144.739L71.4801 120.261C73.4329 118.308 73.4329 115.141 71.4801 113.188C69.5253 111.233 66.3601 111.233 64.4073 113.188L39.9274 137.666L15.4495 113.188C13.4967 111.233 10.3274 111.233 8.37661 113.188C6.42182 115.141 6.42182 118.308 8.37661 120.261L32.8545 144.739L8.32059 169.274C6.36579 171.229 6.36579 174.395 8.32059 176.347C9.29698 177.324 10.5775 177.812 11.858 177.812C13.1385 177.812 14.4191 177.324 15.3954 176.347L39.9294 151.811L64.4073 176.289C65.3837 177.266 66.6642 177.754 67.9447 177.754C69.2252 177.754 70.5037 177.266 71.4821 176.289C73.4349 174.335 73.4349 171.169 71.4821 169.216L47.0002 144.739Z" fill="#DD2E44"/>
<path d="M148.958 0.170898H105.687C102.274 0.170898 99.5059 2.93869 99.5059 6.35245V48.0779H155.14V6.35245C155.14 2.93869 152.372 0.170898 148.958 0.170898Z" fill="#FFCC4D"/>
<path d="M149.133 29.1249C151.586 28.4279 151.586 27.3524 149.135 26.6538L148.271 26.4158L147.411 26.1639V26.1717L142.868 24.7947L146.458 21.806H146.436L147.198 21.3083L147.966 20.7535C149.961 19.1726 149.524 18.148 146.994 18.4386L146.011 18.5761L145.035 18.7152H145.032L140.428 19.2391L143.163 14.3247L143.641 13.4624C144.88 11.237 144.075 10.4288 141.851 11.6651L140.989 12.1009L140.13 12.5336H140.126L136.068 14.8347L136.594 10.282V10.2774L136.717 9.30068L136.836 8.31472C137.127 5.78956 136.076 5.3553 134.494 7.35194L133.885 8.12309L130.397 12.5274L129.131 8.07519L129.128 8.06746L128.59 6.17436C127.893 3.72183 126.751 3.72183 126.053 6.17436L125.784 7.12014L125.515 8.06746L124.246 12.5274L121.37 8.89579L121.369 8.89424L120.758 8.12309L120.145 7.34885C118.564 5.3553 117.511 5.79265 117.803 8.3209L117.918 9.30068L118.031 10.2774V10.2789L118.565 14.8826L113.656 12.1473L112.795 11.6682C110.568 10.4273 109.761 11.234 111.001 13.4609L111.48 14.3201L114.215 19.2298L109.611 18.6951H109.61L108.633 18.5823L107.652 18.4679C105.123 18.1758 104.688 19.2282 106.68 20.8092L107.454 21.4227L108.225 22.0331L108.227 22.0347L111.858 24.9106L107.401 26.1809L106.456 26.4498L105.51 26.7187C103.057 27.4173 103.057 28.5578 105.51 29.2563L107.403 29.7941L107.409 29.7972L111.861 31.0628L107.455 34.5523L106.684 35.1643C104.688 36.7452 105.122 37.7992 107.647 37.5086L108.633 37.385L109.61 37.2598H109.613L114.169 36.7344L111.868 40.7926V40.7957L111.435 41.6549L110.977 42.5172C109.741 44.7426 110.559 45.5462 112.784 44.3068L113.649 43.8293L118.571 41.0939L118.049 45.6977V45.7007L117.925 46.6774L117.806 47.6587C117.514 50.1885 118.565 50.6228 120.146 48.6277L120.758 47.855L121.369 47.0823L124.246 43.4476L125.513 47.906V47.9076L125.782 48.8533L126.053 49.8007C126.751 52.2516 127.76 52.2516 128.459 49.7991L128.867 47.9076V47.9014L130.265 43.4476L133.209 47.0823L133.852 47.855L134.481 48.6277C136.061 50.6213 137.124 50.1885 136.832 47.6618L136.711 46.6774L136.594 45.6992V45.6946L136.068 41.1403L140.123 43.4414H140.126L140.987 43.8741L141.85 44.33C144.075 45.5709 144.883 44.7503 143.642 42.5265L143.21 41.6596L142.775 40.7988V40.7957L140.474 36.7344L145.028 37.2598H145.033L146.011 37.3835L146.996 37.5025C149.522 37.7945 149.955 36.7421 147.962 35.1612L147.189 34.5492L146.416 33.9388L142.781 30.9299L147.235 29.5329H147.241L149.133 29.1249Z" fill="#F4900C"/>
<path d="M127.322 42.8696C135.541 42.8696 142.204 36.2067 142.204 27.9876C142.204 19.7684 135.541 13.1055 127.322 13.1055C119.103 13.1055 112.44 19.7684 112.44 27.9876C112.44 36.2067 119.103 42.8696 127.322 42.8696Z" fill="#FFE8B6"/>
<path d="M155.139 49.6232V42.2996C150.679 36.407 142.495 26.4424 138.14 26.4424C134.001 26.4424 126.404 35.4412 121.832 41.394V55.8048H148.958C152.372 55.8048 155.139 53.037 155.139 49.6232Z" fill="#5C913B"/>
<path d="M113.413 35.7148C109.938 35.7148 104.021 42.0648 99.5049 47.6251V49.6233C99.5049 53.0371 102.273 55.8049 105.686 55.8049H133.503C133.503 55.8049 127.637 47.3346 121.831 41.3941C118.697 38.1875 115.58 35.7148 113.413 35.7148Z" fill="#3E721D"/>
<path d="M133.772 41.2732C132.458 41.2732 131.396 42.3353 131.396 43.6492V60.2817H55.362V24.6407C55.362 23.3291 54.2999 22.2646 52.9859 22.2646C51.672 22.2646 50.6099 23.3291 50.6099 24.6407V76.9141C50.6099 78.2281 51.672 79.2902 52.9859 79.2902C54.2999 79.2902 55.362 78.2281 55.362 76.9141V72.162H131.396V76.9141C131.396 78.2281 132.458 79.2902 133.772 79.2902C135.086 79.2902 136.148 78.2281 136.148 76.9141V43.6492C136.148 42.3353 135.086 41.2732 133.772 41.2732Z" fill="#C1694F"/>
<path d="M91.0033 34.1445H86.2512C83.6375 34.1445 81.499 36.283 81.499 38.8967V48.4009H91.0033V34.1445Z" fill="#AA8DD8"/>
<path d="M124.268 37.0481L91.0029 34.1445C83.3805 34.1445 81.4986 48.4009 81.4986 48.4009H79.1226V62.6573H131.396V43.6488C131.396 39.0749 128.842 37.0481 124.268 37.0481Z" fill="#55ACEE"/>
<path d="M81.498 48.4014H60.1135C57.4903 48.4014 55.3613 50.5303 55.3613 53.1535V62.6578H79.122L81.498 48.4014Z" fill="#BDDDF4"/>
<path d="M55.6329 41.9353C54.9605 44.8174 60.1403 47.9182 67.2067 48.8663C74.2732 49.8119 80.546 48.2414 81.2208 45.3616C81.8932 42.4794 76.7134 39.3786 69.647 38.4306C62.5829 37.4825 56.3077 39.0531 55.6329 41.9353Z" fill="#55ACEE"/>
<path d="M81.9481 46.0244C81.6297 47.4382 81.499 48.4005 81.499 48.4005H131.396V46.0244H81.9481Z" fill="#226699"/>
<path d="M131.396 43.6484H82.5727C82.3113 44.5157 82.1046 45.3236 81.9478 46.0245H131.396V43.6484Z" fill="#3B88C3"/>
<path d="M82.4717 43.6891C84.2803 40.1924 81.6909 35.2601 76.6883 32.6726C71.6856 30.0851 66.1639 30.8222 64.3553 34.319C62.5467 37.8157 65.136 42.748 70.1387 45.3355C75.1414 47.923 80.6631 47.1859 82.4717 43.6891Z" fill="#FFDC5D"/>
<path d="M69.3213 46.9175C69.3213 46.9175 60.2637 42.2319 64.3553 34.3172C67.6295 27.985 76.6895 32.6706 76.6895 32.6706C76.6895 32.6706 72.1607 30.3278 69.7038 35.0776C68.0667 38.2449 74.8599 41.7567 69.3213 46.9175Z" fill="#FFAC33"/>
<path d="M110.137 42.8411L134.617 18.3632C136.57 16.4104 136.57 13.2431 134.617 11.2903C132.663 9.33552 129.497 9.33552 127.544 11.2903L103.065 35.7682L78.5867 11.2903C76.6339 9.33552 73.4646 9.33552 71.5138 11.2903C69.559 13.2431 69.559 16.4104 71.5138 18.3632L95.9917 42.8411L71.4578 67.377C69.503 69.3318 69.503 72.4971 71.4578 74.4499C72.4342 75.4263 73.7147 75.9145 74.9952 75.9145C76.2757 75.9145 77.5563 75.4263 78.5327 74.4499L103.067 49.9139L127.544 74.3918C128.521 75.3682 129.801 75.8564 131.082 75.8564C132.362 75.8564 133.641 75.3682 134.619 74.3918C136.572 72.4371 136.572 69.2718 134.619 67.319L110.137 42.8411Z" fill="#DD2E44"/>
</svg>
