<svg width="329" height="154" viewBox="0 0 329 154" fill="none" xmlns="http://www.w3.org/2000/svg">
<rect width="329" height="154" fill="#E5E5E5"/>
<g clip-path="url(#clip0)">
<rect width="411" height="731" transform="translate(-43 -165)" fill="#232B3F"/>
<path d="M92.5408 123.773V110.657C92.5408 99.7907 83.7368 90.9834 72.867 90.9834H20.4033C9.5401 90.9834 0.729492 99.7907 0.729492 110.657V123.773H92.5408Z" fill="#3B88C3"/>
<path d="M33.519 90.9831L46.6349 107.381L59.7508 90.9831V77.8672H33.519V90.9831Z" fill="#FFDC5D"/>
<path d="M33.519 84.4255C37.5063 88.9308 41.241 90.062 46.6218 90.062C51.9961 90.062 55.7603 88.9275 59.7508 84.4255V71.3096H33.519V84.4255Z" fill="#F9CA55"/>
<path d="M25.1381 51.4269C25.1381 56.1749 22.7314 60.0244 19.7639 60.0244C16.7964 60.0244 14.3896 56.1749 14.3896 51.4269C14.3896 46.679 16.7964 42.8262 19.7639 42.8262C22.7314 42.8229 25.1381 46.6757 25.1381 51.4269ZM78.8773 51.4269C78.8773 56.1749 76.4738 60.0244 73.503 60.0244C70.5355 60.0244 68.1288 56.1749 68.1288 51.4269C68.1288 46.679 70.5323 42.8262 73.503 42.8262C76.4738 42.8229 78.8773 46.6757 78.8773 51.4269Z" fill="#FFDC5D"/>
<path d="M18.6885 54.7851C18.6885 36.459 31.201 21.5986 46.6352 21.5986C62.0693 21.5986 74.5786 36.459 74.5786 54.7851C74.5786 73.1113 62.0693 87.9717 46.6352 87.9717C31.201 87.9684 18.6885 73.1113 18.6885 54.7851Z" fill="#FFDC5D"/>
<path d="M46.6345 77.2191C37.6042 77.2191 34.8302 74.9074 34.3678 74.4385C33.5284 73.5991 33.5284 72.2383 34.3678 71.3989C35.181 70.5857 36.4861 70.5628 37.3255 71.3235C37.496 71.4448 39.6896 72.9204 46.6345 72.9204C53.8482 72.9204 55.9337 71.3301 55.9533 71.3137C56.7928 70.4775 58.1076 70.5169 58.947 71.3629C59.7865 72.2023 59.7406 73.6024 58.9011 74.4385C58.4388 74.9074 55.6648 77.2191 46.6345 77.2191Z" fill="#C1694F"/>
<path d="M46.6356 10.584C65.1552 10.584 76.73 24.2508 76.73 35.6386C76.73 47.0265 74.4151 51.5843 72.1001 47.0265L67.4702 37.9175C67.4702 37.9175 53.5837 37.9175 48.9538 33.3597C48.9538 33.3597 55.8987 47.0265 42.009 33.3597C42.009 33.3597 44.3239 42.472 30.4342 31.0841C30.4342 31.0841 23.4893 35.6386 21.1743 47.0265C20.5317 50.1875 16.5444 47.0265 16.5444 35.6386C16.5412 24.2508 25.801 10.584 46.6356 10.584Z" fill="#FFAC33"/>
<path d="M33.5192 54.9141C31.7158 54.9141 30.2402 53.4385 30.2402 51.6351V48.3561C30.2402 46.5527 31.7158 45.0771 33.5192 45.0771C35.3226 45.0771 36.7982 46.5527 36.7982 48.3561V51.6351C36.7982 53.4385 35.3226 54.9141 33.5192 54.9141ZM59.751 54.9141C57.9476 54.9141 56.472 53.4385 56.472 51.6351V48.3561C56.472 46.5527 57.9476 45.0771 59.751 45.0771C61.5545 45.0771 63.03 46.5527 63.03 48.3561V51.6351C63.03 53.4385 61.5545 54.9141 59.751 54.9141Z" fill="#662113"/>
<path d="M49.094 63.9321H44.1755C42.8213 63.9321 41.7163 62.8271 41.7163 61.4729C41.7163 60.1187 42.8213 59.0137 44.1755 59.0137H49.094C50.4482 59.0137 51.5532 60.1187 51.5532 61.4729C51.5532 62.8271 50.4482 63.9321 49.094 63.9321Z" fill="#C1694F"/>
<path d="M20.4032 112.296H13.8452C13.8452 98.872 19.9999 84.4248 33.5191 84.4248V90.9828C23.1444 90.9828 20.4032 104.925 20.4032 112.296ZM76.1457 99.1802H69.5878C69.5878 97.8325 67.8795 90.9828 59.7509 90.9828V84.4248C71.3355 84.4248 76.1457 94.0355 76.1457 99.1802Z" fill="#292F33"/>
<path d="M17.124 122.134C22.5568 122.134 26.961 117.73 26.961 112.297C26.961 106.864 22.5568 102.46 17.124 102.46C11.6913 102.46 7.28711 106.864 7.28711 112.297C7.28711 117.73 11.6913 122.134 17.124 122.134Z" fill="#CCD6DD"/>
<path d="M17.1244 118.854C20.7462 118.854 23.6823 115.918 23.6823 112.296C23.6823 108.674 20.7462 105.738 17.1244 105.738C13.5025 105.738 10.5664 108.674 10.5664 112.296C10.5664 115.918 13.5025 118.854 17.1244 118.854Z" fill="#F5F8FA"/>
<path d="M85.9826 117.215H79.4247C79.4247 114.477 79.0705 100.82 72.047 100.82C65.0234 100.82 64.6693 114.477 64.6693 117.215H58.1113C58.1113 102.843 63.3216 94.2617 72.047 94.2617C80.7723 94.2617 85.9826 102.843 85.9826 117.215Z" fill="#292F33"/>
<path d="M61.3903 120.493C63.2012 120.493 64.6693 119.025 64.6693 117.215C64.6693 115.404 63.2012 113.936 61.3903 113.936C59.5794 113.936 58.1113 115.404 58.1113 117.215C58.1113 119.025 59.5794 120.493 61.3903 120.493Z" fill="#CCD6DD"/>
<path d="M82.7038 120.493C84.5147 120.493 85.9828 119.025 85.9828 117.215C85.9828 115.404 84.5147 113.936 82.7038 113.936C80.8929 113.936 79.4248 115.404 79.4248 117.215C79.4248 119.025 80.8929 120.493 82.7038 120.493Z" fill="#CCD6DD"/>
<path d="M158.86 103.618C158.86 103.618 162.925 103.265 164.069 100.575C165.253 97.7923 163.013 96.6546 163.013 96.6546C163.013 96.6546 166.263 96.7548 167.465 93.3589C168.599 90.1583 165.838 88.6895 165.838 88.6895C165.838 88.6895 169.015 88.1683 169.942 84.7978C170.722 81.9606 167.961 79.8466 167.961 79.8466H188.689C190.318 79.8466 193.062 78.9263 193.063 75.5287C193.067 72.1328 190.246 71.3568 188.689 71.3568H153.881C152.183 71.3568 152.183 69.6589 153.881 69.6589H158.408C164.847 69.6589 168.839 66.1984 169.941 64.9878C171.044 63.7772 171.603 62.1573 171.187 60.1996C170.482 56.8784 167.927 57.6034 165.759 58.5441C160.532 60.8142 153.085 62.3713 149.563 62.845C139.617 64.1881 131.947 72.7084 131.937 83.0235C131.93 94.2741 140.933 103.609 152.183 103.618H158.86Z" fill="#FFDC5D"/>
<path d="M241.368 137.521C238.165 137.521 235.417 137.049 233.124 136.105C230.831 135.161 229.095 133.93 227.914 132.413C226.768 130.862 226.161 129.176 226.094 127.355C226.094 127.086 226.195 126.85 226.397 126.647C226.633 126.411 226.903 126.293 227.206 126.293H233.579C233.984 126.293 234.304 126.377 234.54 126.546C234.81 126.681 235.08 126.9 235.349 127.204C235.788 128.08 236.496 128.805 237.474 129.378C238.452 129.952 239.75 130.238 241.368 130.238C243.29 130.238 244.757 129.935 245.768 129.328C246.78 128.721 247.286 127.895 247.286 126.85C247.286 126.108 247.016 125.501 246.476 125.029C245.971 124.557 245.161 124.135 244.049 123.764C242.936 123.393 241.284 122.972 239.092 122.5C235.046 121.657 232.011 120.426 229.988 118.808C227.999 117.155 227.004 114.812 227.004 111.777C227.004 109.721 227.577 107.883 228.724 106.264C229.87 104.646 231.506 103.382 233.63 102.471C235.754 101.561 238.232 101.106 241.065 101.106C243.998 101.106 246.544 101.611 248.702 102.623C250.86 103.634 252.495 104.916 253.608 106.467C254.754 107.984 255.361 109.485 255.429 110.968C255.429 111.272 255.328 111.525 255.125 111.727C254.923 111.929 254.67 112.03 254.367 112.03H247.69C247.286 112.03 246.949 111.963 246.679 111.828C246.443 111.693 246.224 111.474 246.021 111.17C245.819 110.395 245.263 109.737 244.352 109.198C243.476 108.658 242.38 108.389 241.065 108.389C239.547 108.389 238.384 108.658 237.575 109.198C236.766 109.737 236.361 110.53 236.361 111.575C236.361 112.283 236.58 112.873 237.018 113.345C237.491 113.817 238.232 114.256 239.244 114.66C240.289 115.031 241.773 115.419 243.695 115.824C246.831 116.397 249.326 117.122 251.18 117.998C253.068 118.841 254.451 119.954 255.328 121.337C256.204 122.685 256.643 124.388 256.643 126.445C256.643 128.704 255.985 130.677 254.67 132.362C253.389 134.015 251.585 135.296 249.258 136.206C246.965 137.083 244.335 137.521 241.368 137.521ZM262.337 137.016C262 137.016 261.696 136.898 261.427 136.662C261.19 136.392 261.072 136.088 261.072 135.751V102.876C261.072 102.505 261.19 102.201 261.427 101.965C261.696 101.729 262 101.611 262.337 101.611H276.094C280.511 101.611 283.95 102.623 286.412 104.646C288.907 106.635 290.155 109.468 290.155 113.143C290.155 115.503 289.598 117.51 288.486 119.162C287.373 120.814 285.839 122.078 283.883 122.955L290.812 135.397C290.913 135.599 290.964 135.785 290.964 135.953C290.964 136.223 290.846 136.476 290.61 136.712C290.408 136.914 290.171 137.016 289.902 137.016H283.175C282.197 137.016 281.506 136.56 281.101 135.65L275.335 124.523H270.176V135.751C270.176 136.122 270.042 136.426 269.772 136.662C269.536 136.898 269.232 137.016 268.861 137.016H262.337ZM275.993 117.341C277.544 117.341 278.724 116.97 279.533 116.228C280.343 115.453 280.747 114.391 280.747 113.042C280.747 111.693 280.343 110.631 279.533 109.855C278.758 109.046 277.578 108.642 275.993 108.642H270.176V117.341H275.993ZM304.118 137.016C303.78 137.016 303.477 136.898 303.207 136.662C302.971 136.392 302.853 136.088 302.853 135.751V109.552H293.85C293.513 109.552 293.21 109.434 292.94 109.198C292.704 108.928 292.586 108.625 292.586 108.288V102.876C292.586 102.505 292.704 102.201 292.94 101.965C293.21 101.729 293.513 101.611 293.85 101.611H321.061C321.432 101.611 321.735 101.729 321.971 101.965C322.208 102.201 322.326 102.505 322.326 102.876V108.288C322.326 108.658 322.208 108.962 321.971 109.198C321.735 109.434 321.432 109.552 321.061 109.552H312.058V135.751C312.058 136.088 311.94 136.392 311.704 136.662C311.468 136.898 311.165 137.016 310.794 137.016H304.118Z" fill="#FFDC5D"/>
<path d="M241.368 50.5214C238.165 50.5214 235.417 50.0493 233.124 49.1052C230.831 48.1611 229.095 46.9304 227.914 45.4131C226.768 43.862 226.161 42.1761 226.094 40.3553C226.094 40.0856 226.195 39.8495 226.397 39.6472C226.633 39.4112 226.903 39.2932 227.206 39.2932H233.579C233.984 39.2932 234.304 39.3775 234.54 39.5461C234.81 39.6809 235.08 39.9001 235.349 40.2036C235.788 41.0802 236.496 41.8052 237.474 42.3784C238.452 42.9516 239.75 43.2382 241.368 43.2382C243.29 43.2382 244.757 42.9348 245.768 42.3278C246.78 41.7209 247.286 40.8948 247.286 39.8495C247.286 39.1077 247.016 38.5008 246.476 38.0287C245.971 37.5567 245.161 37.1352 244.049 36.7643C242.936 36.3934 241.284 35.9719 239.092 35.4998C235.046 34.6569 232.011 33.4262 229.988 31.8077C227.999 30.1555 227.004 27.812 227.004 24.7774C227.004 22.7206 227.577 20.8829 228.724 19.2644C229.87 17.6459 231.506 16.3815 233.63 15.4711C235.754 14.5607 238.232 14.1055 241.065 14.1055C243.998 14.1055 246.544 14.6113 248.702 15.6228C250.86 16.6344 252.495 17.9157 253.608 19.4667C254.754 20.9841 255.361 22.4845 255.429 23.9681C255.429 24.2716 255.328 24.5245 255.125 24.7268C254.923 24.9291 254.67 25.0303 254.367 25.0303H247.69C247.286 25.0303 246.949 24.9628 246.679 24.828C246.443 24.6931 246.224 24.4739 246.021 24.1705C245.819 23.3949 245.263 22.7374 244.352 22.1979C243.476 21.6584 242.38 21.3887 241.065 21.3887C239.547 21.3887 238.384 21.6584 237.575 22.1979C236.766 22.7374 236.361 23.5298 236.361 24.5751C236.361 25.2832 236.58 25.8732 237.018 26.3453C237.491 26.8174 238.232 27.2557 239.244 27.6603C240.289 28.0312 241.773 28.419 243.695 28.8236C246.831 29.3968 249.326 30.1218 251.18 30.9984C253.068 31.8414 254.451 32.9541 255.328 34.3366C256.204 35.6853 256.643 37.3881 256.643 39.4449C256.643 41.704 255.985 43.6766 254.67 45.3625C253.389 47.0147 251.585 48.296 249.258 49.2064C246.965 50.0831 244.335 50.5214 241.368 50.5214ZM275.588 50.5214C270.767 50.5214 266.99 49.3581 264.259 47.0315C261.561 44.6713 260.128 41.2657 259.96 36.8149C259.926 35.9045 259.909 34.4209 259.909 32.364C259.909 30.2735 259.926 28.7562 259.96 27.812C260.128 23.4287 261.595 20.0568 264.36 17.6965C267.125 15.3025 270.868 14.1055 275.588 14.1055C278.555 14.1055 281.219 14.6113 283.58 15.6228C285.94 16.6007 287.794 18.0168 289.143 19.8714C290.526 21.6922 291.234 23.8333 291.267 26.2947V26.3959C291.267 26.6656 291.149 26.9016 290.913 27.104C290.711 27.2726 290.475 27.3568 290.205 27.3568H283.377C282.939 27.3568 282.602 27.2726 282.366 27.104C282.13 26.9016 281.927 26.5476 281.759 26.0418C281.287 24.3222 280.545 23.1252 279.533 22.4508C278.522 21.7427 277.19 21.3887 275.538 21.3887C271.559 21.3887 269.502 23.6141 269.367 28.0649C269.333 28.9753 269.317 30.3746 269.317 32.2629C269.317 34.1511 269.333 35.5841 269.367 36.562C269.502 41.0128 271.559 43.2382 275.538 43.2382C277.19 43.2382 278.539 42.8842 279.584 42.1761C280.629 41.4343 281.354 40.2373 281.759 38.5851C281.894 38.0793 282.079 37.7421 282.315 37.5735C282.551 37.3712 282.905 37.2701 283.377 37.2701H290.205C290.509 37.2701 290.762 37.3712 290.964 37.5735C291.2 37.7758 291.301 38.0287 291.267 38.3322C291.234 40.7936 290.526 42.9516 289.143 44.8061C287.794 46.6269 285.94 48.0431 283.58 49.0547C281.219 50.0325 278.555 50.5214 275.588 50.5214ZM305.007 50.0156C304.669 50.0156 304.366 49.8976 304.096 49.6616C303.86 49.3918 303.742 49.0884 303.742 48.7512V22.552H294.739C294.402 22.552 294.099 22.434 293.829 22.1979C293.593 21.9282 293.475 21.6247 293.475 21.2875V15.8757C293.475 15.5048 293.593 15.2014 293.829 14.9653C294.099 14.7293 294.402 14.6113 294.739 14.6113H321.95C322.321 14.6113 322.625 14.7293 322.861 14.9653C323.097 15.2014 323.215 15.5048 323.215 15.8757V21.2875C323.215 21.6584 323.097 21.9619 322.861 22.1979C322.625 22.434 322.321 22.552 321.95 22.552H312.947V48.7512C312.947 49.0884 312.829 49.3918 312.593 49.6616C312.357 49.8976 312.054 50.0156 311.683 50.0156H305.007Z" fill="#FFDC5D"/>
<path d="M274.597 90.955C274.26 90.955 273.956 90.8369 273.686 90.6009C273.45 90.3312 273.332 90.0277 273.332 89.6905V80.4348H264.329C263.959 80.4348 263.638 80.3168 263.368 80.0808C263.132 79.8447 263.014 79.5413 263.014 79.1704V75.4782C263.014 75.1073 263.132 74.8038 263.368 74.5678C263.638 74.2981 263.959 74.1632 264.329 74.1632H273.332V65.2109C273.332 64.84 273.45 64.5366 273.686 64.3006C273.956 64.0645 274.26 63.9465 274.597 63.9465H278.744C279.115 63.9465 279.418 64.0645 279.654 64.3006C279.89 64.5366 280.009 64.84 280.009 65.2109V74.1632H288.961C289.332 74.1632 289.635 74.2981 289.871 74.5678C290.107 74.8038 290.225 75.1073 290.225 75.4782V79.1704C290.225 79.5413 290.107 79.8447 289.871 80.0808C289.635 80.3168 289.332 80.4348 288.961 80.4348H280.009V89.6905C280.009 90.0277 279.89 90.3312 279.654 90.6009C279.418 90.8369 279.115 90.955 278.744 90.955H274.597Z" fill="#FFDC5D"/>
</g>
<defs>
<clipPath id="clip0">
<rect width="411" height="731" fill="white" transform="translate(-43 -165)"/>
</clipPath>
</defs>
</svg>
