<svg width="36" height="36" viewBox="0 0 36 36" fill="none" xmlns="http://www.w3.org/2000/svg">
<path d="M18 36C27.9411 36 36 27.9411 36 18C36 8.05887 27.9411 0 18 0C8.05887 0 0 8.05887 0 18C0 27.9411 8.05887 36 18 36Z" fill="#FFCC4D"/>
<path d="M18 29C19.6569 29 21 27.6569 21 26C21 24.3431 19.6569 23 18 23C16.3431 23 15 24.3431 15 26C15 27.6569 16.3431 29 18 29Z" fill="#664500"/>
<path d="M17.312 16.612C17.136 16.469 16.885 16.465 16.702 16.598C16.69 16.607 15.442 17.5 13 17.5C10.559 17.5 9.31 16.607 9.3 16.6C9.117 16.463 8.865 16.467 8.689 16.609C8.511 16.751 8.451 16.995 8.543 17.203C8.603 17.338 10.043 20.5 13 20.5C15.958 20.5 17.397 17.338 17.457 17.203C17.549 16.996 17.489 16.754 17.312 16.612V16.612ZM27.312 16.612C27.136 16.469 26.886 16.464 26.702 16.598C26.69 16.607 25.441 17.5 23 17.5C20.56 17.5 19.31 16.607 19.3 16.6C19.117 16.463 18.866 16.467 18.689 16.609C18.511 16.751 18.451 16.995 18.543 17.203C18.603 17.338 20.043 20.5 23 20.5C25.958 20.5 27.397 17.338 27.457 17.203C27.549 16.996 27.489 16.754 27.312 16.612V16.612Z" fill="#664500"/>
<path d="M34.43 12.534C34.434 12.49 34.453 12.457 34.453 12.411C34.453 11.657 33.905 11.223 33.228 11.223H29.646L33.925 5.23C34.131 4.947 34.207 4.777 34.207 4.419C34.207 3.684 33.567 3.57 33.322 3.57H27.973L27.941 2.882C27.941 2.882 26.532 3.713 26.438 3.77C26.344 3.827 25.933 4.142 25.933 4.757C25.933 5.511 26.479 5.944 27.158 5.944H30.307L26.046 11.937C25.952 12.088 25.802 12.37 25.802 12.672C25.802 13.294 26.31 13.596 26.913 13.596H33.228C33.486 13.596 33.743 13.52 33.909 13.42L35.412 12.532H34.43V12.534Z" fill="#FFAC33"/>
<path d="M31.771 5.084H28.622C27.943 5.084 27.397 4.651 27.397 3.897C27.397 3.143 27.943 2.709 28.622 2.709H34.786C35.031 2.709 35.671 2.822 35.671 3.557C35.671 3.915 35.595 4.085 35.389 4.368L31.11 10.361H34.692C35.369 10.361 35.917 10.794 35.917 11.548C35.917 12.302 35.369 12.735 34.692 12.735H28.377C27.774 12.735 27.266 12.433 27.266 11.811C27.266 11.509 27.416 11.227 27.51 11.076L31.771 5.084V5.084Z" fill="#2A6797"/>
<path d="M24.886 7.48C24.889 7.447 24.904 7.422 24.904 7.388C24.904 6.824 24.494 6.499 23.987 6.499H21.305L24.508 2.012C24.664 1.8 24.72 1.673 24.72 1.406C24.72 0.856 24.241 0.771 24.057 0.771H20.053L20.029 0.256C20.029 0.256 18.974 0.878 18.904 0.921C18.834 0.964 18.526 1.2 18.526 1.66C18.526 2.224 18.935 2.549 19.443 2.549H21.8L18.61 7.036C18.54 7.149 18.427 7.36 18.427 7.586C18.427 8.052 18.807 8.277 19.259 8.277H23.987C24.18 8.277 24.372 8.22 24.497 8.145L25.622 7.48H24.886V7.48Z" fill="#FFAC33"/>
<path d="M22.896 1.903H20.539C20.031 1.903 19.622 1.579 19.622 1.014C19.622 0.45 20.031 0.125 20.539 0.125H25.154C25.338 0.125 25.817 0.21 25.817 0.76C25.817 1.028 25.76 1.155 25.606 1.367L22.403 5.854H25.085C25.59 5.854 26 6.178 26 6.743C26 7.308 25.59 7.632 25.083 7.632H20.355C19.903 7.632 19.523 7.406 19.523 6.941C19.523 6.715 19.636 6.504 19.706 6.391L22.896 1.903V1.903Z" fill="#2A6797"/>
<path d="M17.741 10.425C17.744 10.397 17.756 10.376 17.756 10.346C17.756 9.863 17.405 9.585 16.971 9.585H14.676L17.418 5.745C17.55 5.564 17.599 5.455 17.599 5.226C17.599 4.755 17.189 4.682 17.032 4.682H13.605L13.584 4.241L12.621 4.81C12.561 4.847 12.297 5.048 12.297 5.443C12.297 5.926 12.647 6.204 13.082 6.204H15.099L12.369 10.044C12.309 10.141 12.212 10.322 12.212 10.515C12.212 10.914 12.538 11.107 12.924 11.107H16.971C17.136 11.107 17.301 11.058 17.407 10.994L18.37 10.425H17.741Z" fill="#FFAC33"/>
<path d="M16.037 5.652H14.02C13.585 5.652 13.235 5.374 13.235 4.891C13.235 4.408 13.585 4.13 14.02 4.13H17.97C18.127 4.13 18.537 4.203 18.537 4.674C18.537 4.903 18.489 5.012 18.356 5.193L15.614 9.033H17.909C18.343 9.033 18.694 9.311 18.694 9.794C18.694 10.277 18.343 10.555 17.909 10.555H13.862C13.476 10.555 13.15 10.362 13.15 9.963C13.15 9.77 13.246 9.589 13.307 9.492L16.037 5.652V5.652Z" fill="#2A6797"/>
</svg>
