<svg width="33" height="34" viewBox="0 0 33 34" fill="none" xmlns="http://www.w3.org/2000/svg">
<path d="M25.8649 7.1341C33.2259 14.4931 35.2149 24.4381 30.3079 29.3431C25.4009 34.2501 15.4579 32.2611 8.0979 24.9021C7.8479 24.6521 7.6199 24.3921 7.3819 24.1361L11.7989 19.7191C17.5229 25.4431 24.8149 27.4331 28.0849 24.1611C31.3559 20.8901 29.3669 13.5981 23.6439 7.8741L23.6659 7.8951L23.6449 7.8731C17.1039 1.3311 8.1539 -0.325903 3.6569 4.1711C1.4819 6.3461 0.759896 9.5641 1.3189 13.0441C0.460896 8.9611 1.1689 5.1781 3.6569 2.6911C8.5629 -2.2149 18.5059 -0.225904 25.8649 7.1341Z" fill="#FDD888"/>
<path d="M16.4029 34.0001C16.1509 34.0001 15.8999 33.9231 15.6839 33.7691L10.6079 30.1281L5.5319 33.7691C5.0989 34.0791 4.5189 34.0791 4.0889 33.7641C3.6589 33.4521 3.4779 32.9001 3.6389 32.3951L5.5329 26.2851L0.501896 22.7401C0.0738956 22.4251 -0.103105 21.8711 0.0598955 21.3651C0.224895 20.8611 0.693895 20.5181 1.2249 20.5141L7.3719 20.5021L9.4389 14.5451C9.6069 14.0411 10.0779 13.7011 10.6089 13.7011C11.1399 13.7011 11.6109 14.0411 11.7789 14.5451L13.6449 20.5021L19.9919 20.5141C20.5239 20.5181 20.9939 20.8611 21.1569 21.3651C21.3209 21.8711 21.1429 22.4251 20.7149 22.7401L15.6839 26.2851L17.5769 32.3951C17.7389 32.9001 17.5559 33.4531 17.1279 33.7641C16.9109 33.9221 16.6569 34.0001 16.4029 34.0001V34.0001Z" fill="#FFAC33"/>
</svg>
