<svg width="139" height="147" viewBox="0 0 139 147" fill="none" xmlns="http://www.w3.org/2000/svg">
<path d="M138.645 106.141C138.645 115.125 131.36 122.41 122.375 122.41H16.6239C7.63914 122.41 0.354492 115.125 0.354492 106.141V26.0664C0.354492 17.0816 23.9086 0.38916 32.8934 0.38916H116.783C129.367 0.38916 138.645 9.7929 138.645 22.2512V106.141Z" fill="#C1694F"/>
<path d="M130.51 122.411C130.51 131.395 123.226 138.68 114.241 138.68H24.7587C15.7739 138.68 8.48926 131.395 8.48926 122.411V24.7938C8.48926 8.04038 8.40385 8.52439 28.8261 8.52439H114.241C123.226 8.52439 130.51 15.809 130.51 24.7938V122.411Z" fill="#CCD6DD"/>
<path d="M122.375 126.477C122.375 133.217 116.913 138.68 110.173 138.68H12.5566C5.81696 138.68 0.354492 133.217 0.354492 126.477V28.8608C0.354492 22.1212 5.81696 16.6587 12.5566 16.6587H110.173C116.913 16.6587 122.375 22.1212 122.375 28.8608V126.477Z" fill="#E1E8ED"/>
<path d="M122.375 130.545C122.375 139.53 115.091 146.814 106.106 146.814H20.6913C11.7065 146.814 4.42188 139.53 4.42188 130.545V41.0629C4.42188 32.0781 11.7065 24.7935 20.6913 24.7935H106.106C115.091 24.7935 122.375 32.0781 122.375 41.0629V130.545Z" fill="#C1694F"/>
<path d="M114.241 130.545C114.241 139.529 106.956 146.814 97.9712 146.814H20.6913C11.7065 146.814 4.42188 139.529 4.42188 130.545V49.1974C4.42188 40.2126 11.7065 32.928 20.6913 32.928H99.3338C108.319 32.928 114.241 38.8501 114.241 47.8349V130.545Z" fill="#D99E82"/>
<path d="M20.6913 24.7933C13.8256 24.7933 13.6507 16.9759 16.6239 13.6081C20.008 9.7807 25.2671 8.52388 34.6749 8.52388H41.0281V0.38916H29.969C13.8256 0.38916 0.354492 10.5576 0.354492 22.2512V130.545C0.354492 139.53 7.63914 146.814 16.6239 146.814H24.7587V24.7933H20.6913Z" fill="#C1694F"/>
<path d="M97.9714 73.6017C97.9714 78.0921 94.327 81.7365 89.8367 81.7365H49.163C44.6727 81.7365 41.0283 78.0921 41.0283 73.6017V65.467C41.0283 60.9766 44.6727 57.3323 49.163 57.3323H89.8367C94.327 57.3323 97.9714 60.9766 97.9714 65.467V73.6017Z" fill="#E1E8ED"/>
</svg>
