<svg width="148" height="154" viewBox="0 0 148 154" fill="none" xmlns="http://www.w3.org/2000/svg">
<path d="M74.0001 145.194C114.594 145.194 147.502 112.693 147.502 72.6013C147.502 32.5096 114.594 0.00878906 74.0001 0.00878906C33.406 0.00878906 0.498047 32.5096 0.498047 72.6013C0.498047 112.693 33.406 145.194 74.0001 145.194Z" fill="#FFCB4C"/>
<path d="M58.9695 89.7584C58.3425 89.263 57.854 88.5883 57.6205 87.777C57.0411 85.8128 58.1826 83.857 60.1714 83.4172C79.7489 79.0574 92.9317 89.2374 93.4895 89.673C95.1497 90.9796 95.474 93.2812 94.2375 94.8185C93.0009 96.3472 90.6575 96.5308 89.0015 95.2327C88.5259 94.874 78.093 87.0212 62.2727 90.5441C61.0881 90.8045 59.8774 90.4757 58.9695 89.7584Z" fill="#65471B"/>
<path d="M52.8967 58.9877C57.971 58.9877 62.0845 53.9099 62.0845 47.6462C62.0845 41.3825 57.971 36.3047 52.8967 36.3047C47.8225 36.3047 43.709 41.3825 43.709 47.6462C43.709 53.9099 47.8225 58.9877 52.8967 58.9877Z" fill="#65471B"/>
<path d="M101.563 63.5209C106.637 63.5209 110.751 58.4431 110.751 52.1794C110.751 45.9157 106.637 40.8379 101.563 40.8379C96.4885 40.8379 92.375 45.9157 92.375 52.1794C92.375 58.4431 96.4885 63.5209 101.563 63.5209Z" fill="#65471B"/>
<path d="M70.8677 150.023C70.8677 150.023 76.3371 148.268 77.0462 144.25C77.7942 140.1 74.3482 139.267 74.3482 139.267C74.3482 139.267 78.8491 138.379 79.4155 133.391C79.9473 128.69 75.6929 127.571 75.6929 127.571C75.6929 127.571 79.8868 125.863 80.0857 120.999C80.25 116.904 75.7837 114.902 75.7837 114.902C75.7837 114.902 97.5662 109.688 99.8059 109.175C102.037 108.663 105.513 106.549 104.428 101.942C103.351 97.3298 99.2222 97.1676 97.0906 97.6586C94.9547 98.1497 67.9319 104.346 58.6101 106.489L52.3884 107.916C50.0536 108.458 48.9943 107.446 50.6417 105.729C52.8381 103.44 54.2433 100.908 54.7318 96.7064C55.2463 92.2868 53.7287 86.8295 52.8597 84.7116C51.2426 80.7787 48.5144 77.6701 45.3625 76.6025C40.4465 74.9372 36.953 77.9733 38.6954 83.2682C41.3069 91.1851 39.5947 97.68 35.0938 101.6C24.5052 110.811 19.5806 117.378 22.8579 131.376C26.4379 146.642 41.7825 156.467 57.2395 152.931L70.8677 150.023Z" fill="#F19020"/>
<path d="M36.366 27.0526C35.657 26.6768 35.056 26.0961 34.6755 25.3488C33.7416 23.5212 34.5025 21.3904 36.3747 20.6004C54.8194 12.7818 69.6625 20.4168 70.2851 20.7456C72.1572 21.732 72.9138 23.9354 71.9756 25.6733C71.0417 27.4028 68.7761 28.0048 66.904 27.0313C66.3722 26.7622 54.6594 20.9164 39.7601 27.232C38.6489 27.6974 37.3951 27.5949 36.366 27.0526ZM88.8335 43.0657C88.159 42.6472 87.5969 42.028 87.2683 41.2551C86.4598 39.3677 87.3678 37.2967 89.2918 36.6263C108.234 30.0673 122.519 38.6759 123.116 39.0474C124.91 40.1577 125.515 42.4081 124.465 44.0777C123.418 45.743 121.11 46.1914 119.315 45.094C118.796 44.7865 107.525 38.1721 92.2189 43.4756C91.0688 43.8642 89.8279 43.672 88.8335 43.0657Z" fill="#65471B"/>
</svg>
