<svg width="33" height="36" viewBox="0 0 33 36" fill="none" xmlns="http://www.w3.org/2000/svg">
<path d="M32.956 17.916C32.956 17.413 32.836 16.941 32.635 16.512C31.294 12.186 25.016 12.502 16.086 12.291C14.593 12.256 15.447 10.493 15.971 6.623C16.312 4.106 14.689 0.241 11.961 0.241C7.463 0.241 11.79 3.789 7.813 12.563C5.688 17.251 0.938 14.625 0.938 19.334V30.053C0.938 31.886 1.118 33.648 3.696 33.938C6.195 34.219 5.633 36 9.238 36H27.282C29.12 36 30.615 34.504 30.615 32.666C30.615 31.904 30.348 31.21 29.917 30.648C30.937 30.077 31.637 28.999 31.637 27.749C31.637 26.989 31.371 26.295 30.941 25.734C31.964 25.164 32.666 24.085 32.666 22.833C32.666 21.924 32.298 21.1 31.705 20.497C32.462 19.886 32.956 18.962 32.956 17.916V17.916Z" fill="#FFDB5E"/>
<path d="M21.02 21.249H29.624C30.794 21.249 31.892 20.623 32.49 19.616C32.736 19.201 32.599 18.664 32.183 18.417C31.768 18.17 31.231 18.309 30.984 18.724C30.701 19.203 30.178 19.499 29.623 19.499H20.813C19.94 19.499 19.23 18.789 19.23 17.916C19.23 17.043 19.94 16.333 20.813 16.333H26.7C27.183 16.333 27.575 15.941 27.575 15.458C27.575 14.975 27.183 14.583 26.7 14.583H20.812C18.974 14.583 17.479 16.078 17.479 17.916C17.479 18.941 17.954 19.848 18.684 20.46C18.069 21.065 17.686 21.905 17.686 22.833C17.686 23.861 18.164 24.771 18.898 25.382C18.287 25.986 17.908 26.823 17.908 27.749C17.908 28.869 18.467 29.857 19.317 30.462C18.793 31.051 18.465 31.818 18.465 32.666C18.465 34.504 19.96 35.999 21.798 35.999H27.282C28.452 35.999 29.551 35.374 30.149 34.367C30.396 33.952 30.259 33.415 29.844 33.168C29.428 32.923 28.891 33.058 28.645 33.473C28.36 33.952 27.837 34.249 27.282 34.249H21.798C20.925 34.249 20.215 33.539 20.215 32.666C20.215 31.793 20.925 31.083 21.798 31.083H28.304C29.474 31.083 30.574 30.457 31.171 29.45C31.418 29.034 31.281 28.497 30.866 28.251C30.447 28 29.912 28.141 29.667 28.556C29.378 29.043 28.868 29.333 28.304 29.333H21.241C20.368 29.333 19.658 28.622 19.658 27.749C19.658 26.876 20.368 26.166 21.241 26.166H29.332C30.502 26.166 31.601 25.541 32.199 24.534C32.446 24.119 32.309 23.582 31.894 23.335C31.477 23.089 30.941 23.225 30.695 23.64C30.406 24.126 29.896 24.416 29.332 24.416H21.02C20.147 24.416 19.437 23.706 19.437 22.833C19.437 21.96 20.146 21.249 21.02 21.249V21.249Z" fill="#EE9547"/>
</svg>
