<svg width="157" height="157" viewBox="0 0 157 157" fill="none" xmlns="http://www.w3.org/2000/svg">
<path d="M156.533 78.8527C156.533 121.949 121.596 156.886 78.4999 156.886C35.4039 156.886 0.466797 121.949 0.466797 78.8527C0.466797 35.7567 35.4039 0.81958 78.4999 0.81958C121.596 0.81958 156.533 35.7567 156.533 78.8527Z" fill="#FFCC4D"/>
<path d="M102.278 126.015C102.23 125.824 97.3142 107.031 78.4996 107.031C59.6849 107.031 54.7688 125.824 54.7211 126.015C54.4914 126.938 54.9119 127.884 55.7269 128.373C56.5419 128.859 57.604 128.746 58.3107 128.113C58.3497 128.079 62.7022 124.372 78.4996 124.372C94.0628 124.372 98.5151 127.97 98.6841 128.113C99.096 128.503 99.6335 128.707 100.175 128.707C100.54 128.707 100.908 128.616 101.242 128.43C102.092 127.944 102.516 126.96 102.278 126.015ZM68.5417 77.11C68.4853 77.149 63.0707 81.0204 52.4885 81.0204C41.902 81.0204 36.4918 77.149 36.4484 77.1187C35.6074 76.4858 34.4282 76.5464 33.6565 77.2791C32.8892 78.0031 32.7548 79.1779 33.3444 80.0579C33.6089 80.4481 39.9122 89.6907 52.4885 89.6907C65.0605 89.6907 71.3682 80.4481 71.6327 80.0536C72.2136 79.1779 72.0835 78.0161 71.3249 77.2878C70.5619 76.5551 69.3784 76.4901 68.5417 77.11ZM123.347 77.2921C122.588 76.5595 121.409 76.4858 120.559 77.11C120.507 77.149 115.088 81.0204 104.511 81.0204C93.9284 81.0204 88.5138 77.149 88.4705 77.1187C87.6338 76.4858 86.4503 76.5464 85.6786 77.2791C84.9113 78.0031 84.7812 79.1779 85.3665 80.0579C85.6309 80.4481 91.9343 89.6907 104.511 89.6907C117.083 89.6907 123.39 80.4481 123.655 80.0536C124.24 79.1822 124.106 78.0204 123.347 77.2921ZM134.861 70.1824C133.539 70.1824 132.243 69.5842 131.389 68.4484C119.939 53.1842 105.113 52.8461 104.485 52.8417C102.1 52.8157 100.175 50.8649 100.188 48.4849C100.201 46.0962 102.126 44.1714 104.511 44.1714C105.308 44.1714 124.179 44.3881 138.325 63.2461C139.764 65.1623 139.374 67.8804 137.458 69.3154C136.678 69.9006 135.767 70.1824 134.861 70.1824ZM22.138 70.1824C21.2363 70.1824 20.3216 69.9006 19.5412 69.3154C17.6251 67.8804 17.2393 65.1623 18.6742 63.2461C32.8155 44.3881 51.6909 44.1714 52.4885 44.1714C54.8815 44.1714 56.8237 46.1135 56.8237 48.5066C56.8237 50.8952 54.8946 52.8331 52.5059 52.8417C51.8296 52.8504 37.0336 53.2146 25.6061 68.4484C24.7608 69.5842 23.4559 70.1824 22.138 70.1824Z" fill="#664500"/>
<path d="M100.176 100.529C127.102 100.529 156.533 117.869 156.533 139.545C156.533 156.886 143.527 156.886 143.527 156.886C108.846 156.886 139.192 117.869 100.176 100.529Z" fill="#5DADEC"/>
</svg>
