<svg width="35" height="20" viewBox="0 0 35 20" fill="none" xmlns="http://www.w3.org/2000/svg">
<path opacity="0.5" d="M2 8.75C1.30964 8.75 0.75 9.30964 0.75 10C0.75 10.6904 1.30964 11.25 2 11.25V8.75ZM33.8839 10.8839C34.372 10.3957 34.372 9.60427 33.8839 9.11612L25.9289 1.16117C25.4408 0.67301 24.6493 0.67301 24.1612 1.16117C23.673 1.64932 23.673 2.44078 24.1612 2.92893L31.2322 10L24.1612 17.0711C23.673 17.5592 23.673 18.3507 24.1612 18.8388C24.6493 19.327 25.4408 19.327 25.9289 18.8388L33.8839 10.8839ZM2 11.25H33V8.75H2V11.25Z" fill="#DBEDF3"/>
</svg>
