<svg width="218" height="144" viewBox="0 0 218 144" fill="none" xmlns="http://www.w3.org/2000/svg">
<path d="M2.59425 74.1976C2.59425 74.1976 -10.0848 94.0053 31.4796 94.3455C31.4796 94.3455 32.0909 77.111 18.5038 70.0105C15.8619 68.6237 12.803 68.254 9.90665 68.9715C7.01034 69.6889 4.47774 71.4438 2.78864 73.9035L2.59425 74.1976Z" fill="#00818A"/>
<path d="M2.68896 73.8647C2.68896 73.8647 23.9776 78.0596 31.4797 94.3452" stroke="#535461" stroke-width="0.255781" stroke-miterlimit="10"/>
<path d="M33.3365 91.6803C33.3365 91.6803 19.6675 74.0161 20.9157 56.6025C21.4273 49.2948 19.711 41.9948 15.7464 35.8305C13.8599 32.9118 11.71 30.172 9.32373 27.6455" stroke="#535461" stroke-width="0.511562" stroke-miterlimit="10"/>
<path d="M10.04 16.6699C10.994 19.1151 9.33402 27.937 9.33402 27.937C9.33402 27.937 2.1389 22.5682 1.18483 20.1229C0.933274 19.5367 0.802222 18.9059 0.799482 18.2681C0.796742 17.6302 0.92237 16.9983 1.16889 16.41C1.4154 15.8217 1.77777 15.289 2.23441 14.8436C2.69105 14.3983 3.23263 14.0493 3.82691 13.8176C4.4212 13.5858 5.05604 13.476 5.69363 13.4947C6.33123 13.5134 6.95855 13.6602 7.53825 13.9263C8.11795 14.1924 8.63818 14.5725 9.06797 15.0438C9.49776 15.5151 9.82832 16.0681 10.04 16.6699Z" fill="#00818A"/>
<path d="M22.6501 27.3561C22.1231 29.9293 15.9332 36.4312 15.9332 36.4312C15.9332 36.4312 12.8076 28.016 13.3345 25.4326C13.4464 24.8082 13.6822 24.2124 14.0279 23.6804C14.3737 23.1485 14.8223 22.6911 15.3476 22.3352C15.8728 21.9793 16.4639 21.7321 17.0861 21.6082C17.7083 21.4843 18.349 21.4861 18.9705 21.6136C19.592 21.7411 20.1817 21.9917 20.7049 22.3506C21.228 22.7095 21.674 23.1695 22.0167 23.7035C22.3594 24.2374 22.5917 24.8345 22.7 25.4596C22.8084 26.0847 22.7905 26.7252 22.6475 27.3433L22.6501 27.3561Z" fill="#00818A"/>
<path d="M31.3672 50.6326C29.6125 52.5868 20.9901 55.0756 20.9901 55.0756C20.9901 55.0756 22.5401 46.2332 24.2922 44.279C25.1399 43.3604 26.3152 42.8124 27.5638 42.7538C28.8125 42.6951 30.034 43.1305 30.964 43.9657C31.894 44.8009 32.4577 45.9688 32.5332 47.2165C32.6086 48.4642 32.1897 49.6914 31.3672 50.6326Z" fill="#00818A"/>
<path d="M33.9965 69.7313C32.5973 71.954 24.5172 75.87 24.5172 75.87C24.5172 75.87 24.5505 66.8947 25.9496 64.6719C26.2755 64.1297 26.7064 63.658 27.2169 63.2844C27.7274 62.9108 28.3074 62.6428 28.9228 62.4962C29.5382 62.3496 30.1767 62.3272 30.8009 62.4304C31.425 62.5337 32.0223 62.7604 32.5577 63.0974C33.0931 63.4344 33.5559 63.8748 33.919 64.3929C34.282 64.911 34.5381 65.4963 34.672 66.1146C34.806 66.7329 34.8153 67.3717 34.6993 67.9936C34.5833 68.6155 34.3443 69.208 33.9965 69.7364V69.7313Z" fill="#00818A"/>
<path d="M6.81218 40.5339C9.23187 41.557 18.0947 40.1298 18.0947 40.1298C18.0947 40.1298 12.933 32.7837 10.5133 31.7606C9.93727 31.5176 9.31898 31.3904 8.69377 31.3863C8.06855 31.3823 7.44866 31.5014 6.86948 31.7369C6.2903 31.9724 5.76318 32.3196 5.3182 32.7588C4.87323 33.1981 4.51913 33.7206 4.27611 34.2967C4.03308 34.8727 3.90591 35.491 3.90183 36.1162C3.89776 36.7415 4.01687 37.3613 4.25237 37.9405C4.48787 38.5197 4.83513 39.0468 5.27435 39.4918C5.71356 39.9368 6.23611 40.2909 6.81218 40.5339Z" fill="#00818A"/>
<path d="M10.1781 62.8309C12.7922 63.0867 20.8211 59.0684 20.8211 59.0684C20.8211 59.0684 13.6925 53.6152 11.0784 53.3645C10.4481 53.2877 9.80878 53.3379 9.19818 53.5122C8.58758 53.6865 8.01808 53.9814 7.52328 54.3793C7.02847 54.7773 6.61839 55.2704 6.31723 55.8294C6.01607 56.3884 5.82992 57.0021 5.76979 57.6342C5.70965 58.2664 5.77673 58.9041 5.96708 59.5099C6.15743 60.1157 6.46718 60.6772 6.87807 61.1614C7.28895 61.6455 7.79264 62.0424 8.35942 62.3287C8.9262 62.6151 9.54458 62.785 10.1781 62.8284V62.8309Z" fill="#00818A"/>
<path d="M16.4168 84.0499C18.9515 84.738 27.5432 82.1393 27.5432 82.1393C27.5432 82.1393 21.4377 75.558 18.9029 74.8725C18.2962 74.6957 17.6602 74.6416 17.0322 74.7134C16.4043 74.7852 15.797 74.9815 15.2458 75.2908C14.6946 75.6001 14.2106 76.0162 13.8221 76.5147C13.4335 77.0132 13.1483 77.5842 12.9831 78.1943C12.8178 78.8043 12.7758 79.4412 12.8596 80.0677C12.9433 80.6941 13.1511 81.2976 13.4708 81.8428C13.7905 82.388 14.2157 82.8641 14.7215 83.243C15.2274 83.622 15.8037 83.8963 16.4168 84.0499Z" fill="#00818A"/>
<path opacity="0.25" d="M10.04 16.6699C10.994 19.1151 9.33402 27.937 9.33402 27.937C9.33402 27.937 2.1389 22.5682 1.18483 20.1229C0.933274 19.5367 0.802222 18.9059 0.799482 18.2681C0.796742 17.6302 0.92237 16.9983 1.16889 16.41C1.4154 15.8217 1.77777 15.289 2.23441 14.8436C2.69105 14.3983 3.23263 14.0493 3.82691 13.8176C4.4212 13.5858 5.05604 13.476 5.69363 13.4947C6.33123 13.5134 6.95855 13.6602 7.53825 13.9263C8.11795 14.1924 8.63818 14.5725 9.06797 15.0438C9.49776 15.5151 9.82832 16.0681 10.04 16.6699Z" fill="black"/>
<path opacity="0.25" d="M22.6501 27.3561C22.1231 29.9293 15.9332 36.4312 15.9332 36.4312C15.9332 36.4312 12.8076 28.016 13.3345 25.4326C13.4464 24.8082 13.6822 24.2124 14.0279 23.6804C14.3737 23.1485 14.8223 22.6911 15.3476 22.3352C15.8728 21.9793 16.4639 21.7321 17.0861 21.6082C17.7083 21.4843 18.349 21.4861 18.9705 21.6136C19.592 21.7411 20.1817 21.9917 20.7049 22.3506C21.228 22.7095 21.674 23.1695 22.0167 23.7035C22.3594 24.2374 22.5917 24.8345 22.7 25.4596C22.8084 26.0847 22.7905 26.7252 22.6475 27.3433L22.6501 27.3561Z" fill="black"/>
<path opacity="0.25" d="M31.3672 50.6326C29.6125 52.5868 20.9901 55.0756 20.9901 55.0756C20.9901 55.0756 22.5401 46.2332 24.2922 44.279C25.1399 43.3604 26.3152 42.8124 27.5638 42.7538C28.8125 42.6951 30.034 43.1305 30.964 43.9657C31.894 44.8009 32.4577 45.9688 32.5332 47.2165C32.6086 48.4642 32.1897 49.6914 31.3672 50.6326Z" fill="black"/>
<path opacity="0.25" d="M33.9965 69.7313C32.5973 71.954 24.5172 75.87 24.5172 75.87C24.5172 75.87 24.5505 66.8947 25.9496 64.6719C26.2755 64.1297 26.7064 63.658 27.2169 63.2844C27.7274 62.9108 28.3074 62.6428 28.9228 62.4962C29.5382 62.3496 30.1767 62.3272 30.8009 62.4304C31.425 62.5337 32.0223 62.7604 32.5577 63.0974C33.0931 63.4344 33.5559 63.8748 33.919 64.3929C34.282 64.911 34.5381 65.4963 34.672 66.1146C34.806 66.7329 34.8153 67.3717 34.6993 67.9936C34.5833 68.6155 34.3443 69.208 33.9965 69.7364V69.7313Z" fill="black"/>
<path opacity="0.25" d="M6.81218 40.5339C9.23187 41.557 18.0947 40.1298 18.0947 40.1298C18.0947 40.1298 12.933 32.7837 10.5133 31.7606C9.93727 31.5176 9.31898 31.3904 8.69377 31.3863C8.06855 31.3823 7.44866 31.5014 6.86948 31.7369C6.2903 31.9724 5.76318 32.3196 5.3182 32.7588C4.87323 33.1981 4.51913 33.7206 4.27611 34.2967C4.03308 34.8727 3.90591 35.491 3.90183 36.1162C3.89776 36.7415 4.01687 37.3613 4.25237 37.9405C4.48787 38.5197 4.83513 39.0468 5.27435 39.4918C5.71356 39.9368 6.23611 40.2909 6.81218 40.5339Z" fill="black"/>
<path opacity="0.25" d="M10.1781 62.8309C12.7922 63.0867 20.8211 59.0684 20.8211 59.0684C20.8211 59.0684 13.6925 53.6152 11.0784 53.3645C10.4481 53.2877 9.80878 53.3379 9.19818 53.5122C8.58758 53.6865 8.01808 53.9814 7.52328 54.3793C7.02847 54.7773 6.61839 55.2704 6.31723 55.8294C6.01607 56.3884 5.82992 57.0021 5.76979 57.6342C5.70965 58.2664 5.77673 58.9041 5.96708 59.5099C6.15743 60.1157 6.46718 60.6772 6.87807 61.1614C7.28895 61.6455 7.79264 62.0424 8.35942 62.3287C8.9262 62.6151 9.54458 62.785 10.1781 62.8284V62.8309Z" fill="black"/>
<path opacity="0.25" d="M16.4168 84.0499C18.9515 84.738 27.5432 82.1393 27.5432 82.1393C27.5432 82.1393 21.4377 75.558 18.9029 74.8725C18.2962 74.6957 17.6602 74.6416 17.0322 74.7134C16.4043 74.7852 15.797 74.9815 15.2458 75.2908C14.6946 75.6001 14.2106 76.0162 13.8221 76.5147C13.4335 77.0132 13.1483 77.5842 12.9831 78.1943C12.8178 78.8043 12.7758 79.4412 12.8596 80.0677C12.9433 80.6941 13.1511 81.2976 13.4708 81.8428C13.7905 82.388 14.2157 82.8641 14.7215 83.243C15.2274 83.622 15.8037 83.8963 16.4168 84.0499Z" fill="black"/>
<path d="M31.5026 5.47662V73.8904L122.53 56.2083L120.791 3.7373L31.5026 5.47662Z" fill="#DBACA2"/>
<path d="M202.613 86.1401V108.751L106.367 136.872L105.385 136.363L29.257 96.865V3.37436L123.471 0.330566L124.052 52.2209L120.282 53.3821L118.832 4.84766L35.9226 7.72264L35.3446 78.0216L107.526 109.621L107.582 109.608L202.613 86.1401Z" fill="#E8C2B8"/>
<path opacity="0.1" d="M202.613 86.1401V108.751L106.367 136.872L105.385 136.363L107.582 109.608L202.613 86.1401Z" fill="black"/>
<path d="M86.5826 53.308C86.5826 53.308 39.9844 57.9581 35.4596 64.6928C30.9348 71.4275 35.4212 79.6892 35.4212 79.6892L107.459 110.997L205.153 85.7768C205.153 85.7768 202.544 68.0921 194.428 66.0638C186.312 64.0354 121.658 50.1209 121.658 50.1209C121.658 50.1209 95.5682 48.5249 86.5826 53.308Z" fill="#CFE0E6"/>
<path d="M35.416 64.7566L108.905 90.1224C108.905 90.1224 187.289 66.3552 198.392 68.5933C198.392 68.5933 143.56 48.9672 121.658 49.8215C104.203 50.5019 85.9277 53.3667 85.9277 53.3667C85.9277 53.3667 37.4469 58.2367 35.416 64.7566Z" fill="#DBEDF3"/>
<path d="M148.484 81.0755L148.502 81.0499V81.0346L148.515 81.009V80.9911V80.9655V80.9476V80.9195V80.9016V80.8683V80.853C148.515 80.8376 148.515 80.8223 148.515 80.8069C148.515 80.789 148.515 80.7711 148.515 80.7532C148.515 80.7353 148.515 80.7532 148.515 80.7353C148.515 80.7174 148.515 80.7097 148.515 80.6969V80.6739V80.6355V80.61V80.5716V80.546V80.5051V80.4795V80.436V80.413L148.494 80.3491L148.469 80.2774V80.2544L148.448 80.2033V80.1751L148.428 80.1265L148.415 80.0958L148.395 80.0472L148.379 80.014L148.356 79.9654L148.341 79.9347L148.313 79.881L148.297 79.8529L148.259 79.7787L148.213 79.6917L148.198 79.6636L148.164 79.6022L148.147 79.5689L148.113 79.5127L148.093 79.4768L148.06 79.4206L148.003 79.3362L147.967 79.2799L147.944 79.2441L147.906 79.1827L147.886 79.1495L147.834 79.0676V79.0523L147.771 78.9551L147.75 78.9269L147.704 78.8579L147.678 78.822L147.635 78.7607L147.609 78.7223L147.566 78.6609L147.538 78.62L147.492 78.5688L147.464 78.5305L147.415 78.464L147.389 78.4307L147.325 78.3437V78.331L147.251 78.2286L147.226 78.1928L147.177 78.1263L147.144 78.0828L147.098 78.0215L147.065 77.978L147.019 77.9166L146.985 77.8757L146.937 77.8117L146.903 77.7708L146.852 77.7043L146.822 77.6659L146.76 77.5892L146.74 77.5636C146.51 77.272 146.272 76.9804 146.034 76.6991C145.363 75.9016 144.541 75.2442 143.616 74.7645C142.691 74.2848 141.68 73.9922 140.642 73.9034C140.43 73.8855 140.207 73.8624 139.982 73.8343H139.887L139.721 73.8113H139.642L139.386 73.7755L139.143 73.7371L139.059 73.7218L138.887 73.6911L138.785 73.6706L138.629 73.6399L138.519 73.6169L138.371 73.5837L138.258 73.5581L138.11 73.5223L137.995 73.4941L137.849 73.4558L137.734 73.4251L137.588 73.3841C136.821 72.2434 135.654 71.2279 134.519 71.031C134.206 70.9824 133.886 70.999 133.58 71.0795L133.526 71.0207L133.449 70.9338L133.347 70.8033L133.281 70.7163L133.173 70.5654L133.119 70.4913C133.067 70.4145 133.016 70.3361 132.968 70.2559C132.818 70.1888 132.66 70.1382 132.498 70.105C134.761 69.7622 136.993 69.2361 139.171 68.532C139.277 68.492 139.377 68.4397 139.47 68.3759L139.516 68.3606C141.412 67.67 143.739 60.9429 142.102 60.0017C140.465 59.0604 137.966 51.3051 136.501 47.3328C135.035 43.3605 130.812 42.9385 130.812 42.9385C130.812 42.9385 124.694 38.1989 121.937 38.7156C119.179 39.2322 118.747 35.0962 118.489 34.9249C118.459 34.8999 118.433 34.8696 118.415 34.8353C117.75 33.7943 112.463 32.4054 109.611 31.7199C106.823 29.6993 103.497 28.1313 100.809 27.4842C99.9111 27.2412 98.969 27.2094 98.0566 27.3914C97.1442 27.5733 96.2864 27.964 95.5502 28.5329C89.9026 28.8194 89.0022 33.0858 89.0022 33.0858C88.9829 33.668 89.0839 34.2479 89.299 34.7893C88.9938 34.7934 88.6888 34.7772 88.3858 34.7407C89.0406 33.6588 89.0611 32.2673 89.5496 31.0779C90.5139 28.7247 93.174 27.5098 95.6884 27.1926C97.154 27.0085 98.7577 27.0084 99.9139 26.0902C100.509 25.6147 100.915 24.9427 101.06 24.1949C101.107 24.0334 101.092 23.8602 101.019 23.7089C100.947 23.6107 100.851 23.5331 100.74 23.4838C99.2258 22.6755 97.4021 22.8853 95.6833 22.8469C92.8901 22.7855 90.1686 22.0207 87.4676 21.3122C86.3242 21.0129 85.0888 20.7239 83.9838 21.1485C82.9402 21.5475 82.2292 22.499 81.3928 23.2382C77.9653 26.2616 72.2742 25.8242 69.2253 29.2312C68.5193 30.0215 67.9898 31.0933 68.2482 32.1215C68.353 32.541 68.5858 32.9272 68.66 33.3544C68.8083 34.1985 68.3275 35.0067 67.9208 35.7613C67.5141 36.5158 67.1534 37.4315 67.5371 38.1989C68.1177 39.3704 69.8903 39.2834 70.8111 40.2119C71.2382 40.6441 71.4454 41.2631 71.8905 41.6749C72.6041 42.3323 73.7014 42.2811 74.6683 42.1865C75.0494 42.1507 75.6198 42.0458 75.8295 41.7108C76.5774 42.4142 77.4783 42.9344 78.4615 43.2304C79.4446 43.5264 80.483 43.5901 81.4949 43.4165C82.5068 43.243 83.4646 42.8368 84.2929 42.2301C85.1211 41.6234 85.7973 40.8327 86.268 39.9203C88.3515 39.7796 90.4223 40.3396 92.1509 41.5112C92.4114 42.279 92.8895 42.9544 93.527 43.4552C94.1307 43.9284 94.8494 44.509 95.5733 45.1305C93.7393 45.614 92.11 45.9235 92.11 45.9235C92.11 45.9235 84.8714 48.2511 84.8714 49.8011C84.8971 50.0819 84.9844 50.3535 85.1272 50.5966C84.9439 50.982 84.8404 51.4005 84.8228 51.8269C82.8251 51.4893 81.2265 50.9803 80.4003 50.2308C80.4003 50.2308 80.165 50.1669 79.8018 50.0953C79.3158 49.4737 77.8886 47.7472 77.0394 47.8162C76.4741 47.8623 76.272 49.177 76.2004 50.3536C76.126 50.4179 76.0607 50.4919 76.006 50.5736C75.144 51.8653 76.6966 54.4512 77.73 54.8835C78.7633 55.3158 84.4519 55.1393 88.3295 57.9861C90.0484 59.2471 93.0027 59.4901 95.7472 59.3724C92.9873 61.3215 89.1225 64.3167 88.5853 66.1737C88.2963 67.1584 87.9561 68.3811 87.9766 69.637C86.2884 71.8699 83.7332 76.584 90.051 78.8451C95.2587 80.7046 109.378 80.4667 119.438 80.0114C124.118 80.8376 127.983 81.6689 129.605 82.4644C129.605 82.4644 133.483 82.9759 135.035 83.93C136.588 84.8841 139.43 84.6206 139.43 84.6206C139.43 84.6206 144.944 85.5696 146.151 86.7743C147.359 87.979 149.425 84.705 146.842 83.155C145.834 82.5513 144.333 81.5563 142.877 80.4667C144.747 80.6867 146.397 80.9271 147.446 81.1727L147.551 81.1957H147.584H147.65H147.689H147.745H147.781H147.834H148.09H148.157H148.177H148.218H148.241H148.274H148.295H148.326H148.346L148.374 81.1829H148.392L148.418 81.165H148.43L148.464 81.1369L148.484 81.0755ZM124.679 72.8138C124.679 72.8138 123.952 72.6475 122.868 72.3917L120.714 71.5221C120.714 71.5221 124.39 70.3659 127.794 68.8952C128.769 69.3223 129.625 69.6625 129.84 69.972C129.933 70.0746 130.059 70.1408 130.196 70.1587C128.917 70.4759 127.275 71.2918 125.349 73.1744C125.115 73.0743 124.891 72.9536 124.679 72.8138ZM98.6554 52.0443L100.781 51.057C101.244 51.4509 101.74 51.8243 102.226 52.1875C101.06 52.2566 99.4918 52.3333 97.7193 52.3819C98.2615 52.2003 98.6554 52.0443 98.6554 52.0443Z" fill="url(#paint0_linear)"/>
<path d="M80.5436 50.3972C80.5436 50.3972 78.6866 47.8752 77.6763 47.9519C76.666 48.0286 76.8322 52.2542 76.8322 52.2542L80.5436 50.3972Z" fill="#FFD5D8"/>
<path d="M104.418 52.0852C104.418 52.0852 84.6771 53.6889 80.9657 50.3126C80.9657 50.3126 77.5076 49.3841 76.6635 50.6503C75.8194 51.9164 77.3387 54.4461 78.3516 54.8681C79.3645 55.2901 84.9329 55.1239 88.7287 57.9042C92.5245 60.6846 102.479 58.4158 102.479 58.4158L106.613 56.812L104.418 52.0852Z" fill="#00818A"/>
<path opacity="0.05" d="M104.418 52.0852C104.418 52.0852 84.6771 53.6889 80.9657 50.3126C80.9657 50.3126 77.5076 49.3841 76.6635 50.6503C75.8194 51.9164 77.3387 54.4461 78.3516 54.8681C79.3645 55.2901 84.9329 55.1239 88.7287 57.9042C92.5245 60.6846 102.479 58.4158 102.479 58.4158L106.613 56.812L104.418 52.0852Z" fill="black"/>
<path d="M132.679 61.5336C132.679 61.5336 128.462 58.4975 119.773 62.3009C111.084 66.1044 89.4038 68.1225 89.4038 68.1225C89.4038 68.1225 82.1499 75.3765 90.427 78.3307C98.704 81.285 129.907 78.8423 129.907 78.8423C129.907 78.8423 142.645 79.6864 146.609 80.6149C149.009 81.1776 147.121 78.4612 145.241 76.2308C144.585 75.4494 143.78 74.8053 142.874 74.3357C141.968 73.866 140.978 73.5799 139.962 73.4939C137.47 73.2816 134.015 72.4989 132.434 69.9002C132.434 69.9002 129.398 68.3808 124.842 72.9363L120.448 71.1509C120.448 71.1509 132.511 67.3552 132.933 64.8229C133.355 62.2907 132.679 61.5336 132.679 61.5336Z" fill="#FFD5D8"/>
<path opacity="0.05" d="M132.679 61.5336C132.679 61.5336 128.462 58.4975 119.773 62.3009C111.084 66.1044 89.4038 68.1225 89.4038 68.1225C89.4038 68.1225 82.1499 75.3765 90.427 78.3307C98.704 81.285 129.907 78.8423 129.907 78.8423C129.907 78.8423 142.645 79.6864 146.609 80.6149C148.712 81.106 147.517 79.0802 145.934 77.08C145.144 76.0752 144.164 75.2366 143.049 74.6124C141.934 73.9881 140.706 73.5906 139.437 73.4428C137.007 73.1665 133.907 72.3199 132.436 69.9002C132.436 69.9002 129.4 68.3808 124.845 72.9363L120.448 71.1509C120.448 71.1509 132.511 67.3552 132.933 64.8229C133.355 62.2907 132.679 61.5336 132.679 61.5336Z" fill="black"/>
<path d="M132.764 49.5556C132.764 49.5556 127.449 41.1148 114.88 48.4582L98.7653 57.4106C98.7653 57.4106 89.813 63.0634 88.9791 65.9307C88.1453 68.798 86.8689 73.6911 95.6448 75.548C104.421 77.405 124.835 79.7659 129.137 81.8761C129.137 81.8761 132.933 82.3876 134.452 83.311C135.971 84.2344 138.754 83.9863 138.754 83.9863C138.754 83.9863 144.154 84.9147 145.335 86.0965C146.517 87.2782 148.54 84.0707 146.011 82.5539C143.481 81.0371 137.744 76.9855 137.826 75.392C137.908 73.7985 135.884 70.9823 133.935 70.6396C131.986 70.2969 129.464 73.1693 129.464 73.1693C129.464 73.1693 126.259 73.6808 124.318 72.4019C124.318 72.4019 114.363 70.1229 113.35 69.4502C112.337 68.7775 105.421 66.1609 105.421 66.1609C105.421 66.1609 121.791 65.9921 126.594 61.6054C126.594 61.6054 128.451 60.2549 129.968 60.6769C129.981 60.6897 137.488 57.8224 132.764 49.5556Z" fill="#FFD5D8"/>
<path d="M84.9303 33.6945C84.9303 33.6945 89.739 37.0682 93.4504 33.6945C97.1618 30.3207 95.0567 44.0715 95.0567 44.0715C95.0567 44.0715 89.9104 37.237 82.2344 41.7106L84.9303 33.6945Z" fill="#FFD5D8"/>
<path opacity="0.05" d="M84.9303 33.6945C84.9303 33.6945 89.739 37.0682 93.4504 33.6945C97.1618 30.3207 95.0567 44.0715 95.0567 44.0715C95.0567 44.0715 89.9104 37.237 82.2344 41.7106L84.9303 33.6945Z" fill="black"/>
<path d="M64.3475 62.6309C64.3475 62.6309 69.4094 58.3286 72.2767 58.2442C73.131 58.2186 74.1183 57.349 75.0903 56.1417C76.3181 54.6164 77.9376 53.4536 79.7754 52.7778C81.6132 52.1019 83.6001 51.9385 85.5236 52.305C87.1555 52.6068 89.1634 52.5991 91.601 51.9955C100.459 49.8009 96.072 44.322 96.072 44.322L93.2892 41.9612C93.2892 41.9612 89.4934 39.3471 88.0584 39.5159C86.6235 39.6847 82.9121 43.4805 82.4901 43.0585C82.068 42.6365 76.9217 38.8407 76.0776 37.8278C75.2336 36.8149 68.4809 33.5255 70.1691 32.597C71.8572 31.6686 80.3748 28.2104 78.6866 27.5351C76.9984 26.8599 67.8875 25.847 64.3449 30.0648C60.8024 34.2826 62.5724 60.183 64.3475 62.6309Z" fill="#F5F5F5"/>
<path opacity="0.1" d="M64.3475 62.6309C64.3475 62.6309 69.4094 58.3286 72.2767 58.2442C73.131 58.2186 74.1183 57.349 75.0903 56.1417C76.3181 54.6164 77.9376 53.4536 79.7754 52.7778C81.6132 52.1019 83.6001 51.9385 85.5236 52.305C87.1555 52.6068 89.1634 52.5991 91.601 51.9955C100.459 49.8009 96.072 44.322 96.072 44.322L93.2892 41.9612C93.2892 41.9612 89.4934 39.3471 88.0584 39.5159C86.6235 39.6847 82.9121 43.4805 82.4901 43.0585C82.068 42.6365 76.9217 38.8407 76.0776 37.8278C75.2336 36.8149 68.4809 33.5255 70.1691 32.597C71.8572 31.6686 80.3748 28.2104 78.6866 27.5351C76.9984 26.8599 67.8875 25.847 64.3449 30.0648C60.8024 34.2826 62.5724 60.183 64.3475 62.6309Z" fill="#07181E"/>
<path d="M64.6851 62.0401C64.6851 62.0401 69.747 57.7378 72.6143 57.6534C73.4686 57.6278 74.4559 56.7582 75.4279 55.5509C76.6543 54.0273 78.2715 52.8653 80.1068 52.1892C81.9421 51.513 83.9266 51.3479 85.8484 51.7116C87.4803 52.0135 89.4882 52.0058 91.9258 51.4021C100.783 49.2075 96.3968 43.7287 96.3968 43.7287L93.6139 41.3678C93.6139 41.3678 89.8181 38.7538 88.3832 38.9226C86.9483 39.0914 83.2369 42.8872 82.8149 42.4651C82.3928 42.0431 77.2465 38.2473 76.4024 37.2344C75.5583 36.2215 68.8185 32.9347 70.5015 32.0165C72.1846 31.0982 80.7098 27.6298 79.0216 26.9546C77.3335 26.2793 68.2225 25.2664 64.68 29.4842C61.1374 33.7021 62.9125 59.5923 64.6851 62.0401Z" fill="#DBEDF3"/>
<path d="M89.4013 33.5258C89.4013 33.5258 90.7518 27.1134 100.622 29.6456C110.493 32.1778 115.386 37.6592 115.386 37.6592L106.434 41.7926L95.4659 38.0813C95.4659 38.0813 89.3195 38.1554 89.4013 33.5258Z" fill="#FFD5D8"/>
<path opacity="0.05" d="M107.457 31.9219C107.457 31.9219 116.949 33.9682 117.844 35.3775C117.863 35.411 117.888 35.4405 117.918 35.4645C118.174 35.6333 118.594 39.6823 121.292 39.1759C123.991 38.6694 129.989 43.3093 129.989 43.3093C129.989 43.3093 134.122 43.7314 135.557 47.6116C136.992 51.4918 139.437 59.0859 141.041 60.0118C142.645 60.9378 140.366 67.519 138.511 68.1968C136.657 68.8746 129.991 70.4758 129.4 69.6318C128.81 68.7877 123.663 67.8592 124.001 65.1607C124.339 62.4622 126.362 59.93 124.768 58.3262C123.175 56.7225 122.154 52.5046 119.791 51.6606C117.427 50.8165 113.21 50.5633 110.68 52.2514C108.15 53.9396 105.094 54.0138 105.094 54.0138C105.094 54.0138 99.8629 50.9776 99.0188 48.8674C98.451 47.4453 95.622 45.0665 93.8367 43.6674C93.3688 43.3001 92.9865 42.8352 92.7166 42.3051C92.4467 41.775 92.2956 41.1925 92.2738 40.598C92.1997 38.516 92.1332 35.4466 92.3531 34.9504C92.6908 34.183 97.3306 29.6353 97.3306 29.6353L107.457 31.9219Z" fill="black"/>
<path d="M107.795 31.7608C107.795 31.7608 117.287 33.8071 118.182 35.2164C118.201 35.2498 118.226 35.2794 118.256 35.3034C118.512 35.4722 118.931 39.5212 121.63 39.0148C124.328 38.5083 130.326 43.1482 130.326 43.1482C130.326 43.1482 134.46 43.5702 135.895 47.4504C137.33 51.3307 139.775 58.9248 141.379 59.8507C142.982 60.7767 140.703 67.3579 138.849 68.0357C136.995 68.7136 130.329 70.3147 129.738 69.4707C129.147 68.6266 122.364 69.6357 122.702 66.9373C123.04 64.2388 124.348 60.2694 123.278 58.1291C121.685 56.5254 120.619 52.9344 118.256 52.0903C115.893 51.2462 113.547 50.4022 111.017 52.0903C108.488 53.7785 105.155 54.0726 105.155 54.0726C105.155 54.0726 100.221 50.8242 99.3768 48.7166C98.809 47.2944 95.9801 44.9157 94.1947 43.5165C93.7268 43.1492 93.3446 42.6844 93.0747 42.1543C92.8047 41.6242 92.6536 41.0416 92.6319 40.4472C92.5577 38.3651 92.4912 35.2957 92.7112 34.7995C93.0488 34.0322 97.6887 29.4844 97.6887 29.4844L107.795 31.7608Z" fill="#00818A"/>
<path d="M85.943 50.0591C85.8586 50.1435 84.4236 52.2537 86.1118 53.4328C86.5789 53.7753 87.1185 54.0057 87.6888 54.1064C88.2592 54.2071 88.8451 54.1753 89.4012 54.0135L85.943 50.0591Z" fill="#FFD5D8"/>
<path opacity="0.1" d="M94.0333 31.6686C94.0333 31.6686 96.3124 27.1131 101.195 28.2948C106.078 29.4766 113.173 33.7788 114.862 38.081C116.55 42.3833 108.467 47.6191 108.467 47.6191L98.8497 52.0902C98.8497 52.0902 95.898 53.2719 95.0539 52.8575C94.2098 52.4431 90.1608 56.0599 90.1608 56.0599C90.1608 56.0599 85.6053 51.6732 85.6053 50.1539C85.6053 48.6346 92.6931 46.3402 92.6931 46.3402C92.6931 46.3402 101.134 44.7365 101.044 43.1353C101.044 43.1353 102.479 41.4471 101.72 40.9407C100.96 40.4342 92.8184 38.0299 92.8184 38.0299C92.8184 38.0299 92.5242 32.6815 94.0333 31.6686Z" fill="black"/>
<path d="M93.7777 31.4157C93.7777 31.4157 96.0567 26.8602 100.94 28.0419C105.822 29.2236 112.918 33.5259 114.606 37.8281C116.294 42.1303 108.214 47.3636 108.214 47.3636L98.5966 51.8347C98.5966 51.8347 95.6449 53.0164 94.8009 52.602C93.9568 52.1877 89.9078 55.8044 89.9078 55.8044C89.9078 55.8044 85.3523 51.4178 85.3523 49.8984C85.3523 48.3791 92.44 46.0847 92.44 46.0847C92.44 46.0847 100.881 44.481 100.791 42.8798C100.791 42.8798 102.226 41.1916 101.467 40.6852C100.707 40.1787 92.5653 37.7744 92.5653 37.7744C92.5653 37.7744 92.2712 32.4286 93.7777 31.4157Z" fill="#00818A"/>
<path opacity="0.1" d="M82.9913 40.8643C84.3597 40.0308 85.9003 39.5208 87.4956 39.3731C87.9586 38.4804 86.7436 37.5085 86.7436 36.4342C86.7436 35.5338 86.4009 35.1911 86.0684 34.4084C84.8611 33.971 85.6898 32.8481 85.6898 32.8481L82.9913 40.8643Z" fill="black"/>
<path d="M80.9656 43.7339C84.5537 43.7339 87.4624 40.8252 87.4624 37.2371C87.4624 33.649 84.5537 30.7402 80.9656 30.7402C77.3775 30.7402 74.4688 33.649 74.4688 37.2371C74.4688 40.8252 77.3775 43.7339 80.9656 43.7339Z" fill="#FFD5D8"/>
<path d="M76.0955 39.9025C77.5458 38.7822 79.4335 38.4062 81.2598 38.2425C82.4006 38.1402 83.5618 38.1044 84.6565 37.7565C85.2862 37.5369 85.8969 37.2666 86.4828 36.9483C87.2655 36.5492 88.0738 36.1298 88.6084 35.4315C89.4422 34.3418 89.4166 32.8327 89.9384 31.5615C90.8823 29.2595 93.4861 28.0675 95.957 27.758C97.3919 27.5764 98.9598 27.5764 100.096 26.6786C100.678 26.2135 101.076 25.5561 101.218 24.8242C101.264 24.666 101.249 24.4966 101.177 24.3485C101.107 24.2525 101.013 24.1766 100.904 24.1285C99.4202 23.3381 97.6349 23.5428 95.9544 23.5044C93.2201 23.4456 90.5549 22.6936 87.9101 22.0004C86.7898 21.7063 85.5799 21.4249 84.5005 21.8393C83.4774 22.2306 82.7842 23.1616 81.9632 23.8855C78.6073 26.8475 73.0364 26.4177 70.0514 29.7531C69.3608 30.5205 68.8416 31.5768 69.0948 32.5821C69.1997 32.9939 69.4248 33.3699 69.4989 33.7894C69.6447 34.6155 69.1741 35.4085 68.7751 36.1451C68.3761 36.8818 68.0282 37.7821 68.3991 38.5315C68.9695 39.6774 70.7011 39.593 71.604 40.5011C72.0235 40.9231 72.223 41.5242 72.6604 41.9334C73.3612 42.578 74.433 42.5268 75.3794 42.445C75.8909 42.3964 76.7273 42.2276 76.5815 41.5421C76.4588 40.9282 75.6479 40.6648 76.0955 39.9025Z" fill="#85596B"/>
<path d="M73.8268 43.7825C73.8268 43.7825 78.2569 40.4573 81.0398 41.5469C83.8227 42.6366 84.5824 43.2351 86.3549 42.5701C88.1275 41.905 88.8846 43.9206 88.8846 43.9206L77.8451 47.1076L73.8268 43.7825Z" fill="#DBEDF3"/>
<path opacity="0.05" d="M67.8492 49.5962C67.8492 49.5962 69.875 44.3654 72.3203 43.3525L67.8492 49.5962Z" fill="black"/>
<path opacity="0.05" d="M65.2324 47.9082C65.2324 47.9082 67.2582 42.6774 69.7035 41.6646L65.2324 47.9082Z" fill="black"/>
<path opacity="0.05" d="M112.644 49.1745C112.644 49.1745 119.806 45.7163 124.622 46.054C129.439 46.3916 130.275 43.3555 130.275 43.3555" fill="black"/>
<path d="M81.6614 135.515C81.0654 134.96 80.5053 134.306 80.3313 133.51C80.1574 132.715 80.4976 131.758 81.2598 131.464C82.1116 131.136 83.0247 131.72 83.7153 132.326C84.4059 132.932 85.1988 133.605 86.1018 133.477C85.6367 133.055 85.2889 132.52 85.0921 131.924C84.8953 131.328 84.8563 130.691 84.9789 130.075C85.0185 129.821 85.1264 129.582 85.2909 129.384C85.7641 128.873 86.6235 129.095 87.1888 129.494C88.9793 130.773 89.4909 133.211 89.5036 135.416C89.6853 134.62 89.5318 133.792 89.5369 132.976C89.542 132.16 89.7645 131.257 90.4526 130.817C90.8811 130.586 91.3629 130.473 91.8492 130.489C92.66 130.459 93.5629 130.541 94.1154 131.134C94.8034 131.871 94.6269 133.106 94.0259 133.917C93.4248 134.728 92.5167 135.237 91.6803 135.797C91.0089 136.197 90.4362 136.743 90.005 137.395C89.9539 137.487 89.9119 137.583 89.8796 137.682H84.8024C83.6624 137.105 82.6059 136.376 81.6614 135.515Z" fill="#00818A"/>
<path d="M198.945 112.713C198.549 112.39 198.261 111.955 198.119 111.465C198.011 110.969 198.224 110.375 198.697 110.186C199.226 109.984 199.794 110.35 200.231 110.723C200.669 111.096 201.152 111.518 201.715 111.439C201.426 111.177 201.209 110.844 201.087 110.474C200.964 110.103 200.94 109.707 201.017 109.324C201.041 109.166 201.108 109.017 201.211 108.894C201.505 108.58 202.04 108.715 202.393 108.963C203.513 109.751 203.825 111.265 203.833 112.644C203.945 112.15 203.851 111.634 203.853 111.127C203.856 110.621 203.994 110.058 204.424 109.787C204.69 109.643 204.99 109.572 205.293 109.582C205.805 109.564 206.357 109.615 206.703 109.984C207.13 110.442 207.02 111.209 206.646 111.713C206.273 112.217 205.708 112.534 205.188 112.882C204.771 113.131 204.415 113.471 204.147 113.877C204.116 113.933 204.09 113.992 204.071 114.053H200.896C200.189 113.696 199.532 113.246 198.945 112.713Z" fill="#00818A"/>
<defs>
<linearGradient id="paint0_linear" x1="107.984" y1="87.0352" x2="107.984" y2="20.9336" gradientUnits="userSpaceOnUse">
<stop stop-color="#808080" stop-opacity="0.25"/>
<stop offset="0.54" stop-color="#808080" stop-opacity="0.12"/>
<stop offset="1" stop-color="#808080" stop-opacity="0.1"/>
</linearGradient>
</defs>
</svg>
