<svg width="115" height="113" viewBox="0 0 115 113" fill="none" xmlns="http://www.w3.org/2000/svg">
<path d="M7.26973 112.739C1.25231 112.739 -1.40032 108.368 1.36991 103.027L52.3612 4.8433C55.1347 -0.497897 59.6723 -0.497897 62.4458 4.8433L113.437 103.03C116.214 108.368 113.558 112.739 107.54 112.739H7.26973Z" fill="#FFCC4D"/>
<path d="M49.5098 92.9843C49.5098 88.6297 53.0542 85.0853 57.4121 85.0853C61.7668 85.0853 65.3112 88.6297 65.3112 92.9843C65.3112 97.3422 61.7635 100.887 57.4121 100.887C53.0542 100.887 49.5098 97.3422 49.5098 92.9843ZM50.1174 33.225C50.1174 28.9717 53.2568 26.3386 57.4089 26.3386C61.4629 26.3386 64.7036 29.0729 64.7036 33.225V72.2239C64.7036 76.376 61.4629 79.1103 57.4089 79.1103C53.2568 79.1103 50.1174 76.474 50.1174 72.2239V33.225Z" fill="#231F20"/>
</svg>
