<svg width="164" height="164" viewBox="0 0 164 164" fill="none" xmlns="http://www.w3.org/2000/svg">
<g clip-path="url(#clip0)">
<path d="M22.7115 41.7935C26.9755 38.8132 33.4033 39.3848 37.2318 42.5465L32.8408 36.1641C29.3071 31.1244 30.5727 25.6719 35.6169 22.1337C40.6612 18.6091 54.9546 28.0852 54.9546 28.0852C51.3892 22.9956 52.056 16.5452 57.1456 12.9752C62.2352 9.41883 69.2572 10.6481 72.8226 15.7468L120.089 82.5192L114.065 140.922L63.7911 122.587L19.9399 57.5703C16.3428 52.4489 17.5857 45.3861 22.7115 41.7935Z" fill="#EF9645"/>
<path d="M12.8866 78.9399C12.8866 78.9399 7.75171 71.4552 15.2409 66.3248C22.7211 61.1944 27.8515 68.6746 27.8515 68.6746L51.6709 103.413C52.4919 102.043 53.3901 100.691 54.3926 99.3572L21.333 51.1513C21.333 51.1513 16.2026 43.6712 23.6873 38.5408C31.1674 33.4104 36.2978 40.8905 36.2978 40.8905L67.3933 86.2386C68.55 85.2951 69.7339 84.347 70.9542 83.4171L34.9052 30.8384C34.9052 30.8384 29.7748 23.3582 37.2595 18.2278C44.7396 13.0974 49.87 20.5776 49.87 20.5776L85.919 73.1472C87.2435 72.3353 88.5545 71.6321 89.87 70.8882L56.1753 21.7524C56.1753 21.7524 51.0449 14.2723 58.525 9.14189C66.0052 4.01148 71.1356 11.4916 71.1356 11.4916L106.763 63.4489L112.179 71.3509C89.7339 86.7467 87.5974 115.71 100.421 134.413C102.984 138.155 106.726 135.592 106.726 135.592C91.3352 113.143 96.0346 87.917 118.484 72.5258L111.866 39.4027C111.866 39.4027 109.394 30.6751 118.117 28.1983C126.844 25.7261 129.321 34.4537 129.321 34.4537L136.964 57.1527C139.995 66.1525 143.22 75.1205 147.488 83.6031C159.541 107.554 152.342 137.32 129.616 152.911C104.826 169.908 70.936 163.589 53.9344 138.804L12.8866 78.9399Z" fill="#FFDC5D"/>
<path d="M55.0959 145.649C36.9512 145.649 18.616 127.313 18.616 109.169C18.616 106.66 16.7789 104.633 14.2704 104.633C11.7619 104.633 9.5437 106.66 9.5437 109.169C9.5437 136.386 27.8789 154.721 55.0959 154.721C57.6044 154.721 59.6321 152.503 59.6321 149.994C59.6321 147.486 57.6044 145.649 55.0959 145.649Z" fill="#5DADEC"/>
<path d="M32.415 154.53C18.8065 154.53 9.7342 145.458 9.7342 131.85C9.7342 129.341 7.70653 127.313 5.19803 127.313C2.68953 127.313 0.661865 129.341 0.661865 131.85C0.661865 149.994 14.2704 163.603 32.415 163.603C34.9235 163.603 36.9512 161.575 36.9512 159.067C36.9512 156.558 34.9235 154.53 32.415 154.53ZM109.53 9.37305C107.026 9.37305 104.994 11.4053 104.994 13.9092C104.994 16.4132 107.026 18.4454 109.53 18.4454C127.675 18.4454 145.819 34.7257 145.819 54.7347C145.819 57.2387 147.851 59.2709 150.355 59.2709C152.859 59.2709 154.892 57.2387 154.892 54.7347C154.892 29.7223 136.747 9.37305 109.53 9.37305Z" fill="#5DADEC"/>
<path d="M132.211 0.491211C129.707 0.491211 127.675 2.3329 127.675 4.83686C127.675 7.34083 129.707 9.56355 132.211 9.56355C145.819 9.56355 154.701 19.6565 154.701 32.0539C154.701 34.5578 156.919 36.59 159.428 36.59C161.936 36.59 163.773 34.5578 163.773 32.0539C163.773 14.6486 150.355 0.491211 132.211 0.491211Z" fill="#5DADEC"/>
</g>
<defs>
<clipPath id="clip0">
<rect x="0.661865" y="0.300537" width="163.302" height="163.302" fill="white"/>
</clipPath>
</defs>
</svg>
