<svg width="2098" height="1024" viewBox="0 0 2098 1024" fill="none" xmlns="http://www.w3.org/2000/svg">
<circle cx="509.929" cy="551.714" r="352.929" fill="#00818A"/>
<path d="M326.347 473.315C350.039 529.119 411.685 526.723 434.038 473.315" stroke="#232B3F" stroke-width="51.8766" stroke-linecap="round"/>
<path d="M585.819 473.315C609.51 529.119 671.156 526.723 693.51 473.315" stroke="#232B3F" stroke-width="51.8766" stroke-linecap="round"/>
<path d="M676.527 685.07C577.361 770.38 446.135 771.467 342.351 685.613" stroke="#232B3F" stroke-width="51.8766" stroke-linecap="round"/>
<path d="M862.857 299.965H794.292L862.857 231.4H794.292" stroke="#DBEDF3" stroke-width="31.4149" stroke-linecap="round" stroke-linejoin="round"/>
<path d="M814.002 187.923H745.437L814.002 119.358H745.437" stroke="#DBEDF3" stroke-width="31.4149" stroke-linecap="round" stroke-linejoin="round"/>
<path d="M749.422 357.207H680.857L749.422 288.642H680.857" stroke="#DBEDF3" stroke-width="31.4149" stroke-linecap="round" stroke-linejoin="round"/>
<path d="M1152.6 653C1124.87 653 1103.93 643.933 1089.8 625.8C1075.67 607.667 1068.2 584.733 1067.4 557L1067 545L1067.4 533C1068.2 505.533 1075.67 482.733 1089.8 464.6C1103.93 446.2 1124.87 437 1152.6 437C1180.07 437 1201.67 446.733 1217.4 466.2V374.2C1217.4 371.533 1218.2 369.4 1219.8 367.8C1221.67 365.933 1223.93 365 1226.6 365H1245.8C1248.47 365 1250.6 365.933 1252.2 367.8C1254.07 369.4 1255 371.533 1255 374.2V639.8C1255 642.467 1254.07 644.733 1252.2 646.6C1250.6 648.2 1248.47 649 1245.8 649H1227.8C1225.13 649 1222.87 648.2 1221 646.6C1219.4 644.733 1218.6 642.467 1218.6 639.8V623C1203.13 643 1181.13 653 1152.6 653ZM1161 620.6C1179.4 620.6 1193.13 614.6 1202.2 602.6C1211.53 590.333 1216.6 575.8 1217.4 559C1217.67 556.067 1217.8 551 1217.8 543.8C1217.8 536.333 1217.67 531.133 1217.4 528.2C1216.87 512.467 1211.8 498.733 1202.2 487C1192.6 475.267 1178.87 469.4 1161 469.4C1142.07 469.4 1128.2 475.267 1119.4 487C1110.87 498.733 1106.2 514.2 1105.4 533.4L1105 545C1105 595.4 1123.67 620.6 1161 620.6ZM1399.69 653C1370.36 653 1347.56 644.733 1331.29 628.2C1315.29 611.667 1306.76 589.667 1305.69 562.2L1305.29 545L1305.69 527.8C1306.76 500.6 1315.42 478.733 1331.69 462.2C1347.96 445.4 1370.62 437 1399.69 437C1428.76 437 1451.42 445.4 1467.69 462.2C1483.96 478.733 1492.62 500.6 1493.69 527.8C1493.96 530.733 1494.09 536.467 1494.09 545C1494.09 553.533 1493.96 559.267 1493.69 562.2C1492.62 589.667 1483.96 611.667 1467.69 628.2C1451.69 644.733 1429.02 653 1399.69 653ZM1399.69 622.2C1416.49 622.2 1429.69 616.867 1439.29 606.2C1449.16 595.533 1454.49 580.2 1455.29 560.2C1455.56 557.533 1455.69 552.467 1455.69 545C1455.69 537.533 1455.56 532.467 1455.29 529.8C1454.49 509.8 1449.16 494.467 1439.29 483.8C1429.69 473.133 1416.49 467.8 1399.69 467.8C1382.89 467.8 1369.56 473.133 1359.69 483.8C1349.82 494.467 1344.62 509.8 1344.09 529.8L1343.69 545L1344.09 560.2C1344.62 580.2 1349.82 595.533 1359.69 606.2C1369.56 616.867 1382.89 622.2 1399.69 622.2ZM1537.83 649C1535.17 649 1532.9 648.2 1531.03 646.6C1529.43 644.733 1528.63 642.467 1528.63 639.8V625.8C1528.63 623.667 1529.17 621.533 1530.23 619.4C1531.57 617 1532.9 614.867 1534.23 613L1644.63 472.6H1541.43C1538.77 472.6 1536.5 471.8 1534.63 470.2C1533.03 468.333 1532.23 466.067 1532.23 463.4V450.2C1532.23 447.533 1533.03 445.4 1534.63 443.8C1536.5 441.933 1538.77 441 1541.43 441H1683.83C1686.5 441 1688.63 441.933 1690.23 443.8C1692.1 445.4 1693.03 447.533 1693.03 450.2V465C1693.03 467.133 1692.37 469.267 1691.03 471.4C1689.97 473.533 1688.77 475.533 1687.43 477.4L1578.23 617.4H1691.83C1694.77 617.4 1697.03 618.2 1698.63 619.8C1700.23 621.4 1701.03 623.667 1701.03 626.6V639.8C1701.03 642.467 1700.1 644.733 1698.23 646.6C1696.63 648.2 1694.5 649 1691.83 649H1537.83ZM1780.97 725C1778.84 725 1776.97 724.2 1775.37 722.6C1773.77 721 1772.97 719.133 1772.97 717C1772.97 715.133 1773.64 712.733 1774.97 709.8L1805.77 636.6L1729.37 456.2C1728.04 452.733 1727.37 450.467 1727.37 449.4C1727.37 447 1728.17 445 1729.77 443.4C1731.37 441.8 1733.37 441 1735.77 441H1755.37C1759.64 441 1762.84 443.267 1764.97 447.8L1825.77 593.4L1888.17 447.8C1890.3 443.267 1893.64 441 1898.17 441H1916.97C1919.37 441 1921.37 441.8 1922.97 443.4C1924.57 445 1925.37 446.867 1925.37 449C1925.37 449.8 1924.7 452.2 1923.37 456.2L1809.77 718.2C1807.64 722.733 1804.3 725 1799.77 725H1780.97Z" fill="#DBEDF3"/>
</svg>
