<svg width="36" height="36" viewBox="0 0 36 36" fill="none" xmlns="http://www.w3.org/2000/svg">
<path d="M16 2C16 2 16 0 18 0C20 0 20 2 20 2V4C20 4 20 6 18 6C16 6 16 4 16 4V2ZM34 16C34 16 36 16 36 18C36 20 34 20 34 20H32C32 20 30 20 30 18C30 16 32 16 32 16H34ZM4 16C4 16 6 16 6 18C6 20 4 20 4 20H2C2 20 0 20 0 18C0 16 2 16 2 16H4ZM9.121 7.293C9.121 7.293 10.535 8.707 9.121 10.121C7.707 11.535 6.293 10.121 6.293 10.121L4.878 8.708C4.878 8.708 3.464 7.294 4.878 5.879C6.293 4.465 7.707 5.879 7.707 5.879L9.121 7.293ZM30.121 28.293C30.121 28.293 31.535 29.707 30.121 31.121C28.707 32.535 27.293 31.121 27.293 31.121L25.879 29.707C25.879 29.707 24.465 28.293 25.879 26.879C27.293 25.465 28.707 26.879 28.707 26.879L30.121 28.293ZM29.708 10.121C29.708 10.121 28.294 11.535 26.88 10.121C25.466 8.707 26.88 7.293 26.88 7.293L28.294 5.879C28.294 5.879 29.708 4.465 31.122 5.879C32.536 7.293 31.122 8.707 31.122 8.707L29.708 10.121ZM8.708 31.121C8.708 31.121 7.294 32.535 5.88 31.121C4.466 29.707 5.88 28.293 5.88 28.293L7.294 26.879C7.294 26.879 8.708 25.465 10.122 26.879C11.536 28.293 10.122 29.707 10.122 29.707L8.708 31.121ZM16 32C16 32 16 30 18 30C20 30 20 32 20 32V34C20 34 20 36 18 36C16 36 16 34 16 34V32Z" fill="#FFAC33"/>
<path d="M18 28C23.5228 28 28 23.5228 28 18C28 12.4772 23.5228 8 18 8C12.4772 8 8 12.4772 8 18C8 23.5228 12.4772 28 18 28Z" fill="#FFAC33"/>
</svg>
