<svg width="185" height="185" viewBox="0 0 185 185" fill="none" xmlns="http://www.w3.org/2000/svg">
<path d="M155.879 177.934C147.639 186.174 134.29 186.169 126.061 177.934L6.76391 58.6425C-1.47075 50.4078 -1.47602 37.0595 6.76391 28.8195L29.1324 6.45627C37.3671 -1.77839 50.7207 -1.77839 58.9554 6.45627L178.237 125.748C186.471 133.983 186.471 147.342 178.242 155.566L155.879 177.934Z" fill="#FFCC4D"/>
<path d="M47.7728 32.5541C45.7115 34.6102 42.3797 34.6102 40.3184 32.5541C38.2624 30.4928 38.2624 27.1557 40.3184 25.0944L58.9597 6.45312L66.4141 13.9128L47.7728 32.5541ZM77.5905 40.0086C75.5345 42.0699 72.1921 42.0699 70.1361 40.0086C68.0748 37.9473 68.0748 34.6102 70.1361 32.5541L77.5958 25.0944L85.0502 32.5541L77.5905 40.0086ZM85.0502 69.8262C82.9889 71.8876 79.6518 71.8876 77.5958 69.8262C75.5397 67.7649 75.5397 64.4279 77.5958 62.3718L96.2371 43.7305C98.7992 46.2926 101.135 48.6228 103.692 51.1902L85.0502 69.8262ZM114.868 77.2807C112.812 79.342 109.475 79.342 107.419 77.2807C105.352 75.2194 105.357 71.8823 107.419 69.8262L114.873 62.3666C117.43 64.934 119.765 67.2588 122.328 69.8262L114.868 77.2807ZM122.328 107.104C120.266 109.165 116.934 109.17 114.873 107.104C112.812 105.042 112.812 101.711 114.868 99.6492L133.509 81.0131L140.964 88.4676L122.328 107.104ZM159.605 144.381C157.549 146.442 154.212 146.442 152.156 144.381C150.089 142.32 150.089 138.988 152.151 136.927L170.792 118.291L178.246 125.745L159.605 144.381ZM152.145 114.558C150.084 116.619 146.757 116.619 144.691 114.563C142.63 112.502 142.635 109.165 144.691 107.109L152.151 99.6545L159.6 107.104L152.145 114.558Z" fill="#292F33"/>
</svg>
